<?xml version="1.0" encoding="UTF-8"?>
<svg version="1.1" xmlns="http://www.w3.org/2000/svg" width="1024" height="1024">
<path d="M0 0 C1.25890549 -0.00101212 1.25890549 -0.00101212 2.54324341 -0.00204468 C93.85640063 0.11291465 186.82901511 28.37833625 269.625 88.25 C270.53354736 88.92675781 270.53354736 88.92675781 271.46044922 89.6171875 C279.14146031 95.36325417 286.49760398 101.4421818 293.76708984 107.6953125 C295.13906723 108.84337452 296.53367355 109.96451909 297.93994141 111.0703125 C305.74777275 117.25530568 312.76372671 124.08258579 319.77783203 131.14208984 C321.7468315 133.12181424 323.72630727 135.09060754 325.70703125 137.05859375 C332.04093838 143.38575064 338.08498625 149.74392056 343.64111328 156.77197266 C345.59425943 159.21160266 347.63490587 161.52956814 349.734375 163.84375 C353.72257396 168.28560166 357.32460907 172.95435817 360.875 177.75 C361.52194824 178.62092285 362.16889648 179.4918457 362.83544922 180.38916016 C364.77176977 183.004741 366.69928442 185.62660548 368.625 188.25 C369.16737305 188.9831543 369.70974609 189.71630859 370.26855469 190.47167969 C394.71293799 223.61844992 418.83605113 265.70019278 427.625 306.25 C427.295 306.91 426.965 307.57 426.625 308.25 C425.91214844 308.04503906 425.19929687 307.84007812 424.46484375 307.62890625 C423.02818359 307.22478516 423.02818359 307.22478516 421.5625 306.8125 C420.55960938 306.52761719 419.55671875 306.24273437 418.5234375 305.94921875 C415.48340994 305.1117913 415.48340994 305.1117913 411.6875 305.125 C408.625 304.25 408.625 304.25 407.63549805 302.6550293 C407.34715088 301.94773682 407.05880371 301.24044434 406.76171875 300.51171875 C406.42261475 299.69477539 406.08351074 298.87783203 405.73413086 298.03613281 C405.18511108 296.65699707 405.18511108 296.65699707 404.625 295.25 C404.0208728 293.75871582 404.0208728 293.75871582 403.40454102 292.23730469 C402.5222369 290.05058753 401.64406368 287.86220014 400.76953125 285.67236328 C396.48664737 274.96965242 392.09517755 264.45729605 386.68798828 254.27441406 C385.50248586 252.01667726 384.35813591 249.74032848 383.21484375 247.4609375 C369.43376706 220.22487156 352.16165472 195.62498203 332.625 172.25 C332.13854004 171.66444336 331.65208008 171.07888672 331.15087891 170.47558594 C322.71731898 160.35075072 313.74946844 150.75269755 304.625 141.25 C304.12693848 140.72857422 303.62887695 140.20714844 303.11572266 139.66992188 C297.86983695 134.19760875 292.37972287 129.24940106 286.45703125 124.51953125 C283.57262939 122.20803128 280.75594921 119.82879588 277.9375 117.4375 C199.7312694 52.36590557 99.62239829 19.12001863 -1.5625 18.9375 C-2.53089813 18.93382416 -3.49929626 18.93014832 -4.49703979 18.92636108 C-24.19938291 18.88720973 -43.70941165 20.39576183 -63.1875 23.375 C-64.20559753 23.53023132 -64.20559753 23.53023132 -65.2442627 23.68859863 C-120.17574024 32.17189538 -176.49647824 50.84961111 -223.375 81.25 C-224.28507813 81.83749023 -225.19515625 82.42498047 -226.1328125 83.03027344 C-238.89240537 91.30999633 -251.42208362 99.83723286 -263.375 109.25 C-264.04466797 109.7769043 -264.71433594 110.30380859 -265.40429688 110.84667969 C-273.47264455 117.22938665 -281.26773155 123.82075995 -288.78515625 130.84375 C-290.92156893 132.82871261 -293.08942515 134.73931489 -295.3125 136.625 C-303.28629435 143.54785492 -310.82473968 151.19778881 -317.65234375 159.25 C-319.74872279 161.68389131 -321.9389738 164.02134425 -324.125 166.375 C-329.90754149 172.72531369 -335.16053631 179.43053966 -340.375 186.25 C-340.85727051 186.87535645 -341.33954102 187.50071289 -341.83642578 188.14501953 C-383.80583348 242.63186193 -410.65567005 305.43600198 -423.9296875 372.72265625 C-424.18419678 374.00930176 -424.43870605 375.29594727 -424.70092773 376.62158203 C-425.12827853 378.92193968 -425.51564573 381.23038135 -425.84790039 383.54638672 C-426.88619392 390.67808796 -426.88619392 390.67808796 -429.51171875 393.75 C-430.35347656 394.245 -431.19523437 394.74 -432.0625 395.25 C-432.95324219 395.79011719 -433.84398437 396.33023437 -434.76171875 396.88671875 C-437.91767803 398.53310109 -441.06602847 399.94019877 -444.375 401.25 C-445.035 401.91 -445.695 402.57 -446.375 403.25 C-445.92962221 391.5763085 -444.43190786 380.34454156 -442.25 368.875 C-442.09471832 368.04718018 -441.93943665 367.21936035 -441.77944946 366.36645508 C-439.03073158 351.77895031 -435.74492539 337.44689696 -431.375 323.25 C-431.01567383 322.08130371 -430.65634766 320.91260742 -430.28613281 319.70849609 C-417.54880511 278.88110065 -400.32939917 238.40252499 -375.75292969 203.22851562 C-374.1871818 200.98031916 -372.64482362 198.71681211 -371.1015625 196.453125 C-363.67150919 185.62126056 -355.82673334 175.30049021 -347.375 165.25 C-346.41753096 164.09801998 -345.46048698 162.94568651 -344.50390625 161.79296875 C-339.12553613 155.34346251 -333.55674531 149.09908849 -327.84765625 142.94140625 C-325.86844733 140.78710144 -323.95273743 138.60633291 -322.0625 136.375 C-314.25642796 127.38104743 -305.56909854 118.81696427 -296.375 111.25 C-295.8584082 110.81961426 -295.34181641 110.38922852 -294.80957031 109.94580078 C-278.06868148 96.01660563 -260.69602824 83.02669813 -242.375 71.25 C-241.59672852 70.74291504 -240.81845703 70.23583008 -240.01660156 69.71337891 C-169.2929969 23.77020427 -84.1255697 0.06193036 0 0 Z " fill="#000000" transform="translate(513.375,50.75)"/>
<path d="M0 0 C1.17028748 -0.00367584 2.34057495 -0.00735168 3.54632568 -0.01113892 C25.30358262 -0.04677281 46.6192883 1.34254522 68.0625 5.0625 C68.82576599 5.19255432 69.58903198 5.32260864 70.37542725 5.456604 C113.30403253 12.79671671 153.36506952 26.78392554 192.1875 46.3125 C193.10144531 46.76625 194.01539063 47.22 194.95703125 47.6875 C224.25231748 62.26680264 250.70647853 81.72361642 275.1875 103.3125 C275.94264893 103.97789795 276.69779785 104.6432959 277.47583008 105.32885742 C283.64392887 110.81784413 289.55080292 116.52394267 295.375 122.375 C296.22513672 123.22126953 297.07527344 124.06753906 297.95117188 124.93945312 C302.90562333 129.90155625 307.63778063 134.97842152 312.1875 140.3125 C313.04472656 141.28832031 313.90195312 142.26414063 314.78515625 143.26953125 C341.32873029 174.01969389 364.78212733 210.639828 379.49804688 248.54931641 C380.10045053 250.08988271 380.74232472 251.614897 381.390625 253.13671875 C382.1875 255.3125 382.1875 255.3125 382.1875 258.3125 C377.8975 258.9725 373.6075 259.6325 369.1875 260.3125 C368.79071045 259.41756836 368.3939209 258.52263672 367.98510742 257.60058594 C346.89610175 210.14391752 320.39900456 166.9695285 283.1875 130.3125 C280.52040652 127.65835358 277.86962924 124.99017274 275.2421875 122.296875 C268.56048898 115.47673916 261.72629009 109.19180799 254.1875 103.3125 C252.87038626 102.25608981 251.55403693 101.19872617 250.23828125 100.140625 C219.38375035 75.51402883 184.88344361 55.76660036 148.1875 41.3125 C147.33236816 40.96622559 146.47723633 40.61995117 145.59619141 40.26318359 C111.40787475 26.47355971 73.77194037 18.76583676 37.1875 15.3125 C36.19395508 15.21751221 35.20041016 15.12252441 34.17675781 15.0246582 C2.6302648 12.38785833 -29.56994408 13.278352 -60.8125 18.3125 C-61.96508301 18.48910156 -63.11766602 18.66570312 -64.30517578 18.84765625 C-106.7580244 25.45891458 -147.81413236 39.30905413 -185.8125 59.3125 C-186.54936035 59.69422363 -187.2862207 60.07594727 -188.04541016 60.46923828 C-207.42465629 70.55160226 -225.83822553 82.55190647 -242.8125 96.3125 C-244.13902185 97.37277261 -245.46586542 98.43264279 -246.79296875 99.4921875 C-248.1960711 100.61884759 -249.59842316 101.74644274 -251 102.875 C-251.94456055 103.6342981 -251.94456055 103.6342981 -252.90820312 104.40893555 C-262.67950041 112.35381029 -271.71184928 121.02531147 -280.6081543 129.92285156 C-282.37074523 131.68325052 -284.14121039 133.43546382 -285.91210938 135.1875 C-292.66616752 141.90778224 -298.93091557 148.8003113 -304.8125 156.3125 C-305.9378783 157.70257131 -307.0641166 159.09194702 -308.19140625 160.48046875 C-322.3862201 178.2882682 -334.88671446 197.33755584 -345.8125 217.3125 C-346.53083008 218.61574219 -346.53083008 218.61574219 -347.26367188 219.9453125 C-366.61244388 255.27128895 -379.57366525 292.97496506 -387.8125 332.3125 C-392.1025 332.6425 -396.3925 332.9725 -400.8125 333.3125 C-402.1864911 330.5645178 -401.5270198 329.14990683 -400.87890625 326.16015625 C-400.64647217 325.08749512 -400.41403809 324.01483398 -400.17456055 322.90966797 C-399.91070557 321.74322754 -399.64685059 320.57678711 -399.375 319.375 C-398.96664917 317.56346436 -398.96664917 317.56346436 -398.55004883 315.71533203 C-387.77143675 269.07553683 -369.43508591 224.18737893 -342.8125 184.3125 C-342.35665527 183.62397949 -341.90081055 182.93545898 -341.43115234 182.22607422 C-330.93983302 166.43435463 -319.38525145 151.49804411 -306.8125 137.3125 C-305.59626953 135.92804688 -305.59626953 135.92804688 -304.35546875 134.515625 C-298.22219498 127.67726622 -291.7788348 121.14700561 -285.3125 114.625 C-284.44633057 113.74577881 -283.58016113 112.86655762 -282.68774414 111.96069336 C-277.45776665 106.7238246 -272.05160089 101.89865695 -266.25854492 97.29101562 C-263.96489344 95.43576544 -261.78720465 93.50563121 -259.625 91.5 C-203.99763178 41.62376789 -128.52912168 14.23075773 -55.8125 3.3125 C-54.78688965 3.14733887 -53.7612793 2.98217773 -52.70458984 2.81201172 C-35.19337568 0.06085914 -17.68771921 0.02666165 0 0 Z " fill="#000000" transform="translate(513.8125,92.6875)"/>
<path d="M0 0 C2.625 0.3125 2.625 0.3125 4.14501953 2.0168457 C6.85981098 6.22786252 8.59068234 10.88237223 10.5 15.5 C11.16708984 17.11007935 11.16708984 17.11007935 11.84765625 18.75268555 C19.51650036 37.58323989 26.68691756 58.08447903 19.9765625 78.19140625 C18.19909144 82.29602873 15.87292684 85.68718819 13.11328125 89.19140625 C11.63908631 91.29242423 11.051305 92.80582657 10.625 95.3125 C16.62469871 96.07841898 19.73522035 94.42496941 24.70703125 91.11328125 C28.84947358 87.2239413 28.95696307 82.42482807 29.5 77 C30.39884592 69.42951612 31.90311105 64.23853063 37.125 58.625 C43.43988621 53.92480621 51.63984812 50.38239526 59.59375 50.88671875 C64.79202453 51.97635707 69.454006 55.084508 72.625 59.3125 C74.77092998 64.91644286 75.78903536 70.96657509 73.78515625 76.7265625 C70.37813451 84.32066482 65.70898709 89.17280341 58.359375 93.0234375 C54.24275463 94.44444662 50.98964591 94.35330383 46.75 94 C42.66888772 93.81840922 39.48579778 93.80406845 35.8671875 95.94140625 C34.39568235 97.33343987 32.96927866 98.77507579 31.59765625 100.265625 C28.66449463 103.3091432 25.46813659 104.63549494 21.625 106.3125 C25.34041094 110.02791094 36.74669741 109.27918963 41.81884766 109.36914062 C67.60450527 109.29549888 84.52963799 102.61722466 105.75244141 88.52539062 C116.29338707 81.65095955 127.26036261 77.45078766 139.88671875 79.9609375 C147.13499358 81.89491277 151.73659671 83.8025603 155.625 90.3125 C156.10710937 91.03308594 156.58921875 91.75367188 157.0859375 92.49609375 C161.2484173 99.49871861 161.66366427 106.31764385 160.625 114.3125 C159.69230772 117.33783182 158.44003511 119.7312563 156.625 122.3125 C156.026875 123.22 155.42875 124.1275 154.8125 125.0625 C149.5670343 130.45783615 143.57892208 132.43444773 136.1875 132.625 C128.69203445 132.58812194 121.34187695 130.67093848 114.625 127.3125 C114.99828935 121.96201939 116.6207657 119.80337093 120.625 116.3125 C121.2540625 116.60125 121.883125 116.89 122.53125 117.1875 C128.60424017 119.82156803 134.03556015 122.11878557 140.5703125 119.546875 C144.11908319 117.67597497 146.54116438 115.70792628 148.625 112.3125 C149.52038883 107.424161 149.15723693 103.37697386 146.9375 98.9375 C143.32291168 94.8344538 140.14782408 91.7804273 134.56640625 91.0390625 C121.78884398 90.49355081 112.06828389 97.76827261 101.8671875 104.5234375 C77.27472573 120.78135506 52.89200931 123.43448377 24.04907227 119.38012695 C18.50635708 118.60858833 13.22181382 118.15259103 7.625 118.3125 C9.15652043 120.54924624 10.69951484 122.77645323 12.25 125 C12.67667969 125.62583984 13.10335937 126.25167969 13.54296875 126.89648438 C18.67358561 134.20952782 23.88231373 137.8057157 32.375 140.25 C43.89703572 143.85521833 53.3172888 148.42208375 59.71875 159.14453125 C62.5590576 165.39057805 63.2114853 173.94356355 60.86328125 180.41015625 C58.97478748 183.44816797 56.86887226 184.9881133 53.625 186.3125 C44.78696328 187.82426944 37.99497367 185.05335699 30.625 180.3125 C22.38295491 174.29182394 18.08789881 165.04060253 16.53613281 155.15209961 C16.26392917 153.16422331 16.05597081 151.16786203 15.8515625 149.171875 C14.78669114 143.89381695 10.52104 140.71296641 6.625 137.3125 C6.37508652 141.95281669 6.19515456 146.58911 6.07568359 151.23461914 C6.02582941 152.80920717 5.95790956 154.38334273 5.87060547 155.95629883 C5.12994373 165.83612115 5.12994373 165.83612115 8.7878418 174.69897461 C11.39368398 177.61054964 11.39368398 177.61054964 14.16040039 180.04589844 C19.23522842 184.71303102 22.17804363 190.85759066 22.86328125 197.6875 C23.17028034 208.54557325 20.06876911 216.80259923 13.5703125 225.3828125 C10.14631951 230.53942846 7.76947244 236.219018 5.2265625 241.84765625 C3.625 245.3125 3.625 245.3125 2.625 246.3125 C0.2265625 246.62109375 0.2265625 246.62109375 -2.375 246.3125 C-3.7890625 244.72265625 -3.7890625 244.72265625 -5 242.375 C-7.32009876 238.12148561 -9.81637984 234.10028697 -12.51977539 230.08618164 C-19.43004617 219.7635159 -25.15661709 210.19640463 -23.375 197.3125 C-21.62438287 189.81151135 -17.50575478 184.57476136 -12.49609375 178.85546875 C-7.86049535 173.29787288 -6.88508914 169.51175786 -6.6875 162.4375 C-6.65406494 161.60629639 -6.62062988 160.77509277 -6.58618164 159.91870117 C-6.30903831 152.3840018 -6.27358437 144.85106206 -6.375 137.3125 C-12.9849516 143.2473259 -15.25460053 148.19080309 -16.75 156.8828125 C-18.49937738 166.48252088 -22.94354917 175.02789267 -30.6875 181.13671875 C-32.87794867 182.62463865 -35.06876684 184.0123131 -37.375 185.3125 C-38.01179688 185.68890625 -38.64859375 186.0653125 -39.3046875 186.453125 C-44.20326134 188.48649527 -50.38677516 188.09050102 -55.25 186.1875 C-61.98103774 180.24834906 -61.98103774 180.24834906 -62.828125 176.0859375 C-63.17462007 168.28979853 -61.04069142 160.55455713 -56.0625 154.5 C-55.175625 153.778125 -54.28875 153.05625 -53.375 152.3125 C-52.67310547 151.61253906 -52.67310547 151.61253906 -51.95703125 150.8984375 C-45.25544985 144.44506282 -36.37746216 141.21670525 -27.625 138.5 C-19.83614179 135.78984173 -14.1307763 129.54460495 -10.375 122.3125 C-9.66829272 119.61995009 -9.66829272 119.61995009 -9.375 117.3125 C-10.59574219 117.51746094 -11.81648437 117.72242188 -13.07421875 117.93359375 C-45.13092395 123.22193752 -72.659335 123.6329952 -100.38818359 104.95654297 C-117.82002046 92.5885712 -117.82002046 92.5885712 -138.375 90.3125 C-142.30284772 91.40848524 -145.21354796 92.82951603 -147.7578125 96.078125 C-150.4664607 100.88929033 -151.06681842 104.86442994 -150.375 110.3125 C-148.92470151 115.02837124 -146.52299328 117.61816269 -142.1875 119.9375 C-137.656909 121.7093648 -134.8050195 121.08491272 -130.41796875 119.20703125 C-129.40669922 118.76423828 -129.40669922 118.76423828 -128.375 118.3125 C-126.34375 117.52734375 -126.34375 117.52734375 -124.375 117.3125 C-122.48828125 118.421875 -122.48828125 118.421875 -120.6875 120.0625 C-120.08550781 120.59359375 -119.48351562 121.1246875 -118.86328125 121.671875 C-117.375 123.3125 -117.375 123.3125 -116.375 126.3125 C-125.0569078 130.85177159 -132.38421715 133.6759764 -142.375 132.3125 C-150.8148512 129.44825098 -157.00335303 125.26778449 -161.39453125 117.51171875 C-164.52384385 110.61008411 -164.34666819 102.74191715 -162.3125 95.5625 C-157.17949533 86.95229862 -151.10695115 81.38042456 -141.375 78.3125 C-122.09297402 75.88721399 -106.68643533 85.28031367 -91.5 96.0625 C-71.36466135 110.34395574 -49.74711116 111.71270229 -25.75 108.3125 C-23.95466738 107.99951223 -22.16076097 107.67614587 -20.375 107.3125 C-20.98085938 107.044375 -21.58671875 106.77625 -22.2109375 106.5 C-28.31270865 103.64624857 -33.13011745 100.28430033 -38.1484375 95.7890625 C-40.21732034 94.06719711 -40.21732034 94.06719711 -42.40234375 94.57421875 C-43.05332031 94.81785156 -43.70429688 95.06148438 -44.375 95.3125 C-53.09871424 96.0297461 -61.46379212 94.9950487 -68.375 89.3125 C-73.96750886 83.92559808 -76.93465511 78.49577645 -77.75 70.75 C-77.11346549 64.91510033 -75.36010143 60.91364224 -71 57 C-66.53730874 53.53004879 -63.40752963 52.08988949 -57.6875 52.375 C-49.26783494 53.46504592 -42.72793953 57.37522751 -36.84765625 63.37109375 C-32.94502281 68.51594473 -32.16410019 72.29459947 -32.375 78.6875 C-32.10623295 84.28069896 -32.10623295 84.28069896 -29.2578125 88.92578125 C-23.24697546 93.44667993 -16.55746656 96.20082705 -9.375 98.3125 C-11.39366804 93.96459961 -13.39420672 90.13503619 -16.375 86.375 C-22.93075653 77.96039605 -24.56635653 69.70705563 -24.625 59.3125 C-24.6559375 57.98798828 -24.6559375 57.98798828 -24.6875 56.63671875 C-24.76431961 43.36613175 -20.04045077 32.86799432 -13.875 21.4375 C-13.19019758 20.14647373 -12.50659714 18.85480915 -11.82421875 17.5625 C-10.57182442 15.19262374 -9.31154683 12.82770447 -8.04492188 10.46533203 C-6.90627746 8.31555806 -5.79933427 6.14876489 -4.72070312 3.96826172 C-2.90352744 0.38204308 -2.90352744 0.38204308 0 0 Z M-0.375 22.3125 C-10.23329909 36.50213416 -15.097337 50.36537064 -12.8125 67.75 C-11.37948859 75.05005086 -7.09981146 82.46474879 -1.375 87.3125 C-0.715 87.3125 -0.055 87.3125 0.625 87.3125 C2.05694595 85.27496024 3.35389327 83.25963033 4.625 81.125 C4.98078125 80.54685547 5.3365625 79.96871094 5.703125 79.37304688 C11.99012655 68.99245663 12.24037801 58.49575371 9.421875 46.84375 C7.12986835 38.34844223 4.37282527 30.27963562 0.625 22.3125 C0.295 22.3125 -0.035 22.3125 -0.375 22.3125 Z M42.52734375 70.38671875 C40.64193749 74.41055116 41.2782592 78.98209261 41.625 83.3125 C48.98011512 84.09526181 48.98011512 84.09526181 55.91015625 82.1171875 C58.94791427 79.55024972 61.20523636 77.07314222 62.625 73.3125 C62.69034066 70.74616352 62.69034066 70.74616352 62.3125 68.125 C62.16361328 66.80435547 62.16361328 66.80435547 62.01171875 65.45703125 C61.83998277 63.33735084 61.83998277 63.33735084 60.625 62.3125 C52.62914937 61.63488554 47.72474595 63.96053775 42.52734375 70.38671875 Z M-63.11328125 65.5703125 C-65.17268702 68.41395019 -64.51103779 70.74899208 -64.02734375 74.0859375 C-63.03480891 77.47363126 -61.10551529 79.18136611 -58.375 81.3125 C-55.73041621 82.63479189 -53.69738699 82.40927194 -50.75 82.375 C-49.74710938 82.36597656 -48.74421875 82.35695313 -47.7109375 82.34765625 C-46.55464844 82.33025391 -46.55464844 82.33025391 -45.375 82.3125 C-43.95406535 77.01628904 -44.69450308 74.06822034 -47.375 69.3125 C-49.87225307 66.58294432 -51.72831987 64.6399648 -55.4375 63.90234375 C-58.38076736 63.77790414 -60.67751602 63.80780373 -63.11328125 65.5703125 Z M-1.6875 106.125 C-3.57860115 108.11596833 -3.57860115 108.11596833 -3.375 110.3125 C-2.6325 110.003125 -1.89 109.69375 -1.125 109.375 C1.13192176 108.5030075 3.2700153 107.83582993 5.625 107.3125 C5.625 106.6525 5.625 105.9925 5.625 105.3125 C2.22710918 104.17986973 1.22000063 103.84614816 -1.6875 106.125 Z M27.625 150.3125 C28.33905235 158.8811282 31.55110814 164.94342353 37.8203125 170.8359375 C41.24127684 173.63490832 44.18714907 175.3125 48.625 175.3125 C49.94314183 170.03993268 49.67464852 166.98436274 46.98046875 162.23046875 C42.66027313 156.1174542 36.60540408 152.72934052 29.625 150.3125 C28.965 150.3125 28.305 150.3125 27.625 150.3125 Z M-44.640625 160.5234375 C-47.04653976 163.00521444 -48.87440882 165.18083145 -50.375 168.3125 C-50.24154873 172.09270634 -50.24154873 172.09270634 -49.375 175.3125 C-45.2661989 176.68210037 -43.44728986 175.47567047 -39.65625 173.66015625 C-32.34335424 169.34003804 -29.52478785 162.25406925 -27.375 154.3125 C-27.375 153.3225 -27.375 152.3325 -27.375 151.3125 C-33.95922427 151.3125 -40.07699257 156.23362301 -44.640625 160.5234375 Z M-1.375 183.3125 C-3.0650572 185.55701456 -4.54163405 187.73751381 -6 190.125 C-6.40734375 190.76759766 -6.8146875 191.41019531 -7.234375 192.07226562 C-10.58860352 197.43125656 -11.79054452 200.97544609 -11.375 207.3125 C-9.42720875 214.30163333 -5.69308924 219.53927383 -1.375 225.3125 C4.71816617 219.86496733 9.31397143 210.73134608 10.9375 202.6875 C11.24400361 196.16510308 7.12720847 189.36932169 3.109375 184.4609375 C1.54233621 183.00653936 1.54233621 183.00653936 -1.375 183.3125 Z " fill="#000000" transform="translate(514.375,119.6875)"/>
<path d="M0 0 C3.35557484 1.98440565 5.69326522 3.80768478 7.5625 7.3125 C8.47402984 12.97027141 7.75593773 17.46320567 4.5625 22.3125 C1.33876323 24.46165785 0.29546326 24.69536803 -3.4375 24.3125 C-5.4375 22.3125 -5.4375 22.3125 -5.625 19.5 C-5.45815367 16.66361242 -5.08705894 14.07312551 -4.4375 11.3125 C-9.72042658 9.85969519 -13.73660263 10.64442311 -18.4375 13.3125 C-21.96241243 18.59986865 -21.04170268 25.17606652 -20.4375 31.3125 C-18.05995966 38.85906778 -12.75369894 43.8846381 -6 47.68359375 C6.55795608 53.83480189 19.16214954 54.8591261 32.875 54.75 C33.6611972 54.74762329 34.44739441 54.74524658 35.25741577 54.74279785 C48.99441378 54.67807045 62.14567455 53.38718917 75.5625 50.3125 C76.8309375 50.03535156 78.099375 49.75820313 79.40625 49.47265625 C86.45132165 47.75105653 93.24982046 45.41196422 100.10888672 43.07299805 C119.56346974 36.4444993 138.53554799 31.1686797 159.1875 31.0625 C160.198125 31.041875 161.20875 31.02125 162.25 31 C167.70351147 30.97137264 171.96067643 31.00685674 176.5625 34.3125 C177.4375 37.5 177.4375 37.5 177.5625 40.3125 C175.6875 42.375 175.6875 42.375 172.5625 44.3125 C170.09228564 44.36217524 167.79352442 44.03330758 165.34765625 43.6875 C136.64765075 39.82326364 105.76204398 54.76553948 83.25390625 71.2578125 C82.36574219 71.93585938 81.47757813 72.61390625 80.5625 73.3125 C79.33853516 74.20582031 79.33853516 74.20582031 78.08984375 75.1171875 C53.82451799 93.50359694 37.39128564 119.7857912 21.57983398 145.30444336 C13.92931101 157.63514145 7.05347018 166.87401261 -6.6875 172.6875 C-17.51656012 174.49234335 -27.08154055 174.05781502 -36.4296875 168.02734375 C-41.8580286 163.84542432 -45.69424551 158.44572011 -46.91796875 151.640625 C-47.28600574 144.5981875 -45.50986723 139.05083564 -41.4375 133.3125 C-36.84252607 128.40463874 -33.34136814 125.58905887 -26.5 124.9375 C-23.07628856 124.97540086 -22.60943787 125.16153016 -19.875 127.5625 C-18.4375 130.3125 -18.4375 130.3125 -18.55078125 132.3671875 C-19.4375 134.3125 -19.4375 134.3125 -21.546875 135.3671875 C-22.41828125 135.63789063 -23.2896875 135.90859375 -24.1875 136.1875 C-29.29751168 138.07901078 -31.7563635 139.50494489 -34.4375 144.3125 C-35.01849691 148.9235866 -33.78495221 151.78635809 -31.25 155.625 C-27.15998678 159.53323485 -23.78235935 161.44499454 -18.125 161.75 C-10.79007391 161.49024714 -4.83351913 158.10617281 0.5625 153.3125 C2.17865936 151.3154088 3.66652087 149.35417416 5.125 147.25 C5.76344849 146.34459473 5.76344849 146.34459473 6.41479492 145.42089844 C9.905407 140.40673166 13.14774747 135.24855081 16.375 130.0625 C29.42940469 109.10630125 44.47484142 87.20511465 63.5625 71.3125 C56.81121219 73.30914445 50.75986633 76.0559157 44.5625 79.375 C43.65185791 79.85670654 42.74121582 80.33841309 41.80297852 80.8347168 C35.94900492 83.95802744 30.19853003 87.22752362 24.5 90.625 C13.28518212 97.30252515 2.16820544 102.75719719 -10.4375 106.3125 C-11.13697754 106.51149902 -11.83645508 106.71049805 -12.55712891 106.91552734 C-32.39073255 112.33680114 -57.56277475 114.09719558 -76.125 103.80859375 C-85.12458714 97.98622572 -89.97192749 91.58409809 -93.04296875 81.28125 C-94.31818602 74.91778954 -94.09155712 68.88508557 -90.83203125 63.1953125 C-86.60551557 57.48892439 -81.21652138 53.3704172 -74.4375 51.3125 C-68.09274974 50.60752775 -63.67581064 51.60506742 -58.4375 55.3125 C-55.06864991 58.20191222 -52.07918322 61.07894881 -50.828125 65.43359375 C-50.57252362 69.18951405 -51.38962579 71.24286478 -53.5 74.3125 C-57.15079152 76.79814529 -59.10296502 76.95465333 -63.4375 76.3125 C-65.4375 75.0625 -65.4375 75.0625 -66.4375 73.3125 C-66.16713853 70.33852384 -65.58303974 69.45803974 -63.4375 67.3125 C-63.4375 66.6525 -63.4375 65.9925 -63.4375 65.3125 C-67.85506755 63.83997748 -72.2483338 63.78000011 -76.75 64.875 C-79.56008123 67.2687729 -80.35397688 69.83382051 -81.4375 73.3125 C-81.4375 79.2860848 -79.35833094 83.89820063 -75.4375 88.3125 C-63.09827914 97.87378109 -47.61658683 99.78225666 -32.4375 98.3125 C-6.30016237 94.40382413 17.74372244 81.85835171 39.5625 67.3125 C37.71011719 67.36470703 37.71011719 67.36470703 35.8203125 67.41796875 C15.0378156 67.82299703 -6.27393609 65.92608899 -22.5078125 51.46875 C-30.8471246 42.66012596 -33.95223215 31.99022045 -33.7109375 20.12109375 C-33.22005033 13.2837368 -31.15716697 8.59565456 -26.125 3.9375 C-18.38625394 -1.95245471 -9.12305917 -4.18707566 0 0 Z " fill="#000000" transform="translate(295.4375,214.6875)"/>
<path d="M0 0 C5.12802465 5.27046978 7.33837457 11.93367181 7.625 19.1875 C7.46676008 29.96219971 3.39382781 39.58048307 -4.1875 47.19921875 C-20.36293522 60.53902127 -46.41280188 64.19530442 -66.75 63.3125 C-65.63625 63.92996094 -64.5225 64.54742187 -63.375 65.18359375 C-62.64522949 65.58860107 -61.91545898 65.9936084 -61.16357422 66.41088867 C-59.53544755 67.31421406 -57.90685591 68.21670182 -56.27783203 69.1184082 C-52.35271336 71.29467774 -48.43691737 73.48234555 -44.5546875 75.734375 C-22.16937912 88.68644654 4.92575465 100.61407122 31.3125 94.1875 C39.7641004 91.37904893 47.30732063 86.85568314 52.25 79.3125 C54.72443618 74.36362764 54.66552483 69.59311037 53.25 64.3125 C50.65477391 60.96382117 48.64444385 59.49842585 44.4375 58.9375 C40.24339153 59.43092453 38.92393123 61.16669856 36.25 64.3125 C36.765625 64.725 37.28125 65.1375 37.8125 65.5625 C38.286875 66.14 38.76125 66.7175 39.25 67.3125 C38.9375 69.5 38.9375 69.5 38.25 71.3125 C31.994 73.64316667 31.994 73.64316667 28.4375 72.0625 C24.30084746 68.75317797 24.30084746 68.75317797 23.875 65.0625 C24.44704738 59.34202617 26.97192132 56.56153143 31 52.625 C36.80266971 48.49617732 41.85456409 46.52754217 49.015625 47.67578125 C56.54289377 49.82078966 61.76633402 54.93651708 65.5625 61.625 C67.88445788 70.70174442 65.77926523 80.37343041 61.359375 88.4765625 C55.20801137 98.65663611 45.46943161 103.3926624 34.29296875 106.5859375 C0.94160372 114.54916458 -30.88473535 99.32676954 -58.75 82.3125 C-61.00342762 80.93873741 -63.25787769 79.56721443 -65.51953125 78.20703125 C-66.83911173 77.41136584 -68.15269876 76.60557861 -69.45703125 75.78515625 C-76.14396828 71.72775471 -83.47205076 69.10623602 -90.75 66.3125 C-90.08581055 66.95574219 -89.42162109 67.59898437 -88.73730469 68.26171875 C-63.50054748 92.80693804 -63.50054748 92.80693804 -54.75 106.3125 C-54.36956543 106.89660645 -53.98913086 107.48071289 -53.59716797 108.08251953 C-49.71896059 114.128108 -46.23374652 120.35493904 -42.9140625 126.72265625 C-33.35613613 146.01467205 -33.35613613 146.01467205 -16.7109375 158.828125 C-10.4029297 160.38627832 -5.15645333 159.76922487 0.5234375 156.58984375 C4.14003281 153.91421781 5.85898025 150.48555926 7.25 146.3125 C7.61291252 142.39304474 7.65170179 140.04895328 5.75 136.5625 C1.56557398 132.79651659 -3.36727241 131.61012183 -8.75 130.3125 C-8.38883848 123.93197973 -8.38883848 123.93197973 -5.6875 121.3125 C-1.73277967 119.96621223 1.35873435 119.92430357 5.25 121.3125 C11.64910598 125.2624172 16.47776515 131.3565261 19.25 138.3125 C20.55602343 145.96514967 19.22510126 153.75969353 14.9609375 160.28515625 C9.86008236 166.70896045 3.41392041 170.1359772 -4.75 171.3125 C-14.48854576 172.2908014 -22.95787852 170.23382266 -31 164.5625 C-40.84133882 156.45786803 -46.17876045 145.87770068 -52.08007812 134.8203125 C-59.94677901 120.09402749 -68.36991136 107.61956293 -79.75 95.3125 C-81.27228447 93.60545964 -82.7931211 91.89712703 -84.3125 90.1875 C-102.82119568 69.69687145 -126.85090676 51.02318099 -153.75 43.3125 C-154.37680664 43.12461914 -155.00361328 42.93673828 -155.64941406 42.74316406 C-167.17096674 39.37916567 -178.46996918 38.79913641 -190.44384766 38.72753906 C-191.60577637 38.71303711 -192.76770508 38.69853516 -193.96484375 38.68359375 C-195.00761475 38.68286865 -196.05038574 38.68214355 -197.12475586 38.68139648 C-199.75 38.3125 -199.75 38.3125 -201.58032227 36.97680664 C-203.44497619 34.32363489 -203.27251562 32.44759374 -202.75 29.3125 C-193.40071537 22.06741302 -175.50890315 27.00425261 -164.55078125 28.33984375 C-150.74519785 30.1994341 -137.81548535 34.20334723 -124.6809082 38.71679688 C-93.75183301 49.19753642 -54.84970365 56.89007723 -23.3359375 45.02734375 C-16.20497596 41.50115202 -10.16744351 36.1078863 -6.5546875 28.94140625 C-5.59427812 25.80375813 -5.44899345 23.09196336 -5.4375 19.8125 C-5.41236328 18.15734375 -5.41236328 18.15734375 -5.38671875 16.46875 C-5.78830675 12.97968434 -6.69352069 11.12689552 -8.75 8.3125 C-12.16457379 5.75156966 -15.60561351 6.01109007 -19.75 6.3125 C-20.74 6.9725 -21.73 7.6325 -22.75 8.3125 C-22.42 8.828125 -22.09 9.34375 -21.75 9.875 C-20.39625996 13.17474134 -20.42316064 15.78263492 -20.75 19.3125 C-23.75 21.3125 -23.75 21.3125 -27.25 21.1875 C-30.75 20.3125 -30.75 20.3125 -32.625 18.4375 C-34.88583771 14.16702877 -35.38919899 10.06597983 -34.75 5.3125 C-32.33026566 0.37996462 -29.84097002 -1.7134504 -24.75 -3.6875 C-15.90181249 -6.31804223 -7.72448983 -4.74002785 0 0 Z " fill="#000000" transform="translate(758.75,219.6875)"/>
<path d="M0 0 C3.29488655 1.27262814 6.4291382 2.68484844 9.5625 4.3125 C13.27115136 6.20253862 16.99535188 7.80742026 20.875 9.3125 C31.53405948 13.715155 39.97355035 20.54211536 48.24609375 28.39453125 C50.55541658 30.57937994 52.89992712 32.68141632 55.3125 34.75 C59.05631984 37.99150439 62.54836961 41.4512925 66 45 C64.94484278 48.1936092 63.9379587 49.03859262 61.0234375 50.8515625 C59.81505587 51.45842156 58.59835458 52.04892045 57.375 52.625 C56.73546387 52.93058838 56.09592773 53.23617676 55.43701172 53.55102539 C44.44675487 58.68865626 31.92962941 60.23990234 20.125 56.5625 C9.57002139 52.01403324 2.57284248 43.32225186 -2 33 C-4.97326113 24.74615881 -8.06917439 15.28222462 -4.6875 6.75 C-4.44386719 6.10546875 -4.20023438 5.4609375 -3.94921875 4.796875 C-2.89675969 2.80456566 -1.66095802 1.50742408 0 0 Z M7 17 C8.17293116 26.20838495 10.27772331 34.9166796 17.3125 41.4375 C25.84128414 47.83863436 33.72430877 47.31645866 44 46 C44.99 45.67 45.98 45.34 47 45 C42.82816416 33.17640673 29.30251371 25.89525493 18.7265625 20.25390625 C14.47318518 18.24124915 11.76560807 17 7 17 Z " fill="#000000" transform="translate(605,284)"/>
<path d="M0 0 C3.33029989 4.99544984 1.71898555 10.22484907 0.63183594 15.93310547 C-2.24342595 29.8124149 -7.2277615 42.50992671 -19.5703125 50.70703125 C-28.6184028 55.28383494 -37.87914178 56.18573964 -47.625 53.4375 C-63.26024052 47.94043855 -63.26024052 47.94043855 -66.109375 43.125 C-65.96257393 40.27286499 -64.61921772 39.27667256 -62.56835938 37.42382812 C-60.865177 35.87760154 -59.32247993 34.24006989 -57.765625 32.546875 C-55.34528672 29.93115464 -52.91396568 27.32663146 -50.47265625 24.73046875 C-48.49202874 22.61966909 -46.56955543 20.49841956 -44.68359375 18.30078125 C-38.6722561 11.56008365 -31.39115134 8.36933644 -23.20751953 4.93310547 C-21.04818767 4.02036864 -18.91309048 3.06407789 -16.77734375 2.09765625 C-15.4567438 1.52110785 -14.13517092 0.94678135 -12.8125 0.375 C-11.64332031 -0.13289063 -10.47414063 -0.64078125 -9.26953125 -1.1640625 C-5.36347879 -2.16274258 -3.58318742 -1.77344442 0 0 Z M-41.9375 30.6875 C-45.26509222 34.13281365 -48 37.03070752 -48 42 C-41.88505036 44.64430255 -35.16465474 45.12867144 -28.72265625 43.3828125 C-19.82474617 39.52306648 -15.75531925 30.42328581 -12 22 C-10.8422494 18.52674819 -10.93133348 15.63932552 -11 12 C-22.63593248 12 -33.93595188 22.98663636 -41.9375 30.6875 Z " fill="#000000" transform="translate(425,287)"/>
<path d="M0 0 C12.65675986 11.12083969 16.99713567 25.52627441 18.39868164 41.95629883 C20.24502246 71.10723993 10.96110173 105.48161626 -8.25585938 127.80761719 C-27.15431954 148.92551677 -57.23303807 162.89880931 -85.53125 164.51953125 C-95.09106995 164.84110136 -106.3257451 164.79306091 -114.4140625 159.18359375 C-116.83937213 155.68242975 -116.54051443 153.95446079 -115.97102356 149.84931946 C-115.01475716 144.98429818 -113.43364304 140.33011951 -111.890625 135.625 C-107.32801867 121.24755586 -103.62401446 106.68759843 -100.0270462 92.04663849 C-99.33693238 89.24239297 -98.64143124 86.43949369 -97.94607162 83.63654518 C-93.91782743 67.39546821 -89.94194936 51.14134896 -86.08203125 34.859375 C-85.9029422 34.10426636 -85.72385315 33.34915771 -85.53933716 32.57116699 C-83.70619405 24.8190982 -81.93866373 17.06252773 -80.45703125 9.234375 C-82.31250165 10.14839983 -84.16634004 11.06573789 -86.01953125 11.984375 C-87.1178125 12.52707031 -88.21609375 13.06976563 -89.34765625 13.62890625 C-91.76796314 14.87858732 -93.9965632 16.1861046 -96.26953125 17.671875 C-100.29443321 19.64486616 -102.20361042 19.57341489 -106.45703125 18.234375 C-109.45703125 16.046875 -109.45703125 16.046875 -111.45703125 13.234375 C-111.82402464 9.8580358 -111.19197036 8.18143939 -109.1171875 5.5078125 C-84.33841738 -19.10829611 -26.48923713 -20.33517194 0 0 Z M-54.45703125 1.234375 C-58.33185125 9.90463538 -61.21160646 18.64483302 -63.70703125 27.796875 C-64.09713756 29.208875 -64.48744235 30.62082017 -64.87792969 32.03271484 C-66.08827057 36.42864931 -67.27691388 40.83023977 -68.45703125 45.234375 C-68.72773437 46.2443454 -68.72773437 46.2443454 -69.00390625 47.27471924 C-75.70022291 72.3266677 -81.69587913 97.55677369 -87.734375 122.7734375 C-87.97983566 123.79707397 -88.22529633 124.82071045 -88.47819519 125.87536621 C-89.85777919 131.65078508 -91.18496746 137.43430303 -92.45703125 143.234375 C-80.65293142 148.29327493 -67.43837905 147.14354356 -55.45703125 143.234375 C-54.60625 142.96753906 -53.75546875 142.70070313 -52.87890625 142.42578125 C-34.95878934 136.08611725 -23.05807826 120.9488618 -15.0625 104.3984375 C-6.77925438 86.41366392 -2.30162465 67.85236909 -2.20703125 48.046875 C-2.18640625 46.98662109 -2.16578125 45.92636719 -2.14453125 44.83398438 C-2.08721918 33.07784606 -4.0470864 22.21376826 -12.171875 13.3671875 C-21.5736104 4.40766051 -33.71806341 0.82236186 -46.45703125 1.109375 C-47.23175781 1.11839844 -48.00648438 1.12742187 -48.8046875 1.13671875 C-50.68893968 1.15998112 -52.57302957 1.1958386 -54.45703125 1.234375 Z " fill="#000000" transform="translate(943.45703125,385.765625)"/>
<path d="M0 0 C1.16015625 -0.04350586 1.16015625 -0.04350586 2.34375 -0.08789062 C9.46678079 -0.16557469 14.10538026 2.31137834 20 6.0625 C25.20598346 11.26848346 27.3555016 18.00505599 27.5625 25.25 C27.37482771 38.07996042 21.89915482 49.17367874 13.234375 58.4765625 C8.97793079 62.41461127 4.5299654 64.95537259 -0.75 67.3125 C1.28626363 68.84660812 3.327586 70.36822085 5.3984375 71.85546875 C13.72110341 78.00256059 18.75135093 84.18820903 21.25 94.3125 C21.63501447 97.43210444 21.68116815 100.48474852 21.625 103.625 C21.61484863 104.45386719 21.60469727 105.28273438 21.59423828 106.13671875 C21.21672655 121.16695307 16.01406453 133.09125729 5.671875 144.0234375 C-4.43479067 153.57586666 -15.16659673 158.4771652 -28.9375 158.5625 C-30.15663086 158.5934375 -30.15663086 158.5934375 -31.40039062 158.625 C-40.00693645 158.67977515 -47.302408 156.50148211 -54.01953125 151.03125 C-58.49000274 146.59105259 -59.97400405 142.04828346 -60.25 135.8125 C-59.91082531 128.13867261 -57.27951156 123.48034023 -51.75 118.25 C-49.75 116.46484375 -49.75 116.46484375 -47.75 115.3125 C-45.5 115.62890625 -45.5 115.62890625 -43.75 116.3125 C-44.625 123.9375 -44.625 123.9375 -45.75 127.3125 C-46.21632277 132.05344816 -46.48805951 134.9574125 -43.4375 138.75 C-38.94198186 143.03642428 -34.67968855 142.5947078 -28.75 142.5234375 C-19.95987169 141.9053816 -12.88746848 135.7640697 -7 129.625 C-3.15116105 125.06438947 -1.38902374 119.98739939 0.25 114.3125 C0.44335938 113.69117188 0.63671875 113.06984375 0.8359375 112.4296875 C2.47105305 104.06900232 2.46275971 92.88981276 -1.75 85.3125 C-5.20253225 81.35748653 -8.90666494 79.13142753 -14.125 78.4375 C-16.57502632 78.30138743 -18.98415588 78.31794549 -21.4375 78.375 C-22.324375 78.395625 -23.21125 78.41625 -24.125 78.4375 C-24.93710937 78.48132813 -25.74921875 78.52515625 -26.5859375 78.5703125 C-28.75 78.3125 -28.75 78.3125 -30.53125 77.01171875 C-31.75 75.3125 -31.75 75.3125 -31.875 72 C-30.36977234 67.06619821 -28.03457045 65.04199006 -23.75 62.3125 C-22.41116867 61.69478178 -21.05562221 61.11230612 -19.6875 60.5625 C-8.36393654 55.84272998 0.8542418 48.45631677 6.25 37.3125 C7.35111689 34.00914934 7.45226528 31.41417863 7.5 27.9375 C7.52578125 26.81601562 7.5515625 25.69453125 7.578125 24.5390625 C7.11792663 20.01377851 5.46203091 17.45107449 2.1875 14.375 C-2.94878938 12.5171932 -7.83629227 14.12792903 -12.77734375 16.13671875 C-20.95457389 20.37742672 -23.94071487 27.00279213 -26.75 35.3125 C-27.11608539 36.64261026 -27.47199818 37.9756117 -27.8125 39.3125 C-28.75 42.3125 -28.75 42.3125 -31.75 44.3125 C-36.48602958 44.23611243 -38.80002739 43.94581507 -42.75 41.3125 C-45.03863957 37.87954064 -45.60617057 36.03418485 -45.35546875 31.96875 C-43.17629032 22.40848333 -36.80039573 12.88498841 -28.75 7.3125 C-19.55680898 2.75839998 -10.22807739 0.12534409 0 0 Z " fill="#000000" transform="translate(795.75,398.6875)"/>
<path d="M0 0 C4.3849532 2.43608511 6.16836766 4.62716215 7.875 9.3125 C15.42912641 39.98134852 -2.68030003 73.88620257 -17.1953125 99.7109375 C-17.73438232 100.67628418 -18.27345215 101.64163086 -18.82885742 102.63623047 C-19.86416107 104.47931923 -20.91280858 106.31500844 -21.9777832 108.14111328 C-27.92008282 118.66246149 -31.32649708 131.83669624 -30 144 C-29.05843278 146.21326473 -29.05843278 146.21326473 -28 148 C-19.36451926 148.68535561 -14.61974512 146.59313509 -7.85546875 141.33203125 C2.98817254 131.54344695 11.6969996 116.8700665 14.69140625 102.6171875 C14.841577 101.92110382 14.99174774 101.22502014 15.14646912 100.50784302 C15.62261799 98.29775961 16.09287996 96.08647906 16.5625 93.875 C17.03663493 91.65659702 17.51202828 89.43847626 17.98924255 87.22073364 C18.28508237 85.84443407 18.5789939 84.46771823 18.8707428 83.09054565 C19.46175998 80.32907995 20.10585424 77.68243728 21 75 C19.98679687 75.08121094 18.97359375 75.16242188 17.9296875 75.24609375 C7.36706619 75.83918914 7.36706619 75.83918914 3.6328125 73.546875 C2.0312841 71.72312495 0.85666527 70.27308341 0 68 C0.495 66.515 0.495 66.515 1 65 C4.24871916 64.32698711 7.49916379 63.6627049 10.75 63 C11.67039062 62.80921875 12.59078125 62.6184375 13.5390625 62.421875 C14.42851563 62.24140625 15.31796875 62.0609375 16.234375 61.875 C17.05131836 61.70742188 17.86826172 61.53984375 18.70996094 61.3671875 C21 61 21 61 25 61 C25.08781738 60.17064941 25.17563477 59.34129883 25.26611328 58.48681641 C26.34130371 49.693251 28.34502963 41.70478188 31.20361328 33.34619141 C31.88450445 31.34709493 32.53876164 29.34050496 33.19140625 27.33203125 C33.62345888 26.04114984 34.05699702 24.75076444 34.4921875 23.4609375 C34.87745605 22.31415527 35.26272461 21.16737305 35.65966797 19.98583984 C37.060027 16.86627865 38.34254751 15.12865082 41 13 C44.44904829 12.48631196 46.58974033 12.85730098 49.875 14 C52 16 52 16 52.22631836 19.65673828 C52.11396398 23.72613237 51.41964933 27.52113872 50.50390625 31.4921875 C50.35090561 32.16420197 50.19790497 32.83621643 50.04026794 33.52859497 C49.71895375 34.93275405 49.39356054 36.33598561 49.06420898 37.73828125 C48.55929047 39.888669 48.06669623 42.04160018 47.57617188 44.1953125 C45.16920429 54.66159142 45.16920429 54.66159142 44 57 C45.66675781 56.65775391 45.66675781 56.65775391 47.3671875 56.30859375 C64.84555711 52.86558683 64.84555711 52.86558683 71 55 C73.25 57.1875 73.25 57.1875 74 60 C73.23827309 63.53164296 72.56128588 65.43871412 70 68 C67.56347257 68.45462036 65.20797403 68.79709842 62.75 69.0625 C62.04359375 69.14483887 61.3371875 69.22717773 60.609375 69.31201172 C53.75459595 70.08470445 46.88578845 70.59115631 40 71 C39.90130615 71.56380371 39.8026123 72.12760742 39.70092773 72.70849609 C38.3101537 80.16925598 36.21829983 87.35459463 34.0625 94.625 C30.18946024 108.02244948 26.84103993 120.79358516 26.5625 134.8125 C26.52866211 135.97096436 26.52866211 135.97096436 26.49414062 137.15283203 C26.50910207 140.49147771 26.52173391 142.46558963 28.796875 145.0078125 C32.3547266 146.61010737 35.39966946 146.12989097 39 145 C45.36544006 141.82856621 50.20177343 137.06694843 55.0546875 131.953125 C57 130 57 130 60 128 C62.1875 128.375 62.1875 128.375 64 129 C62.73940544 139.60638183 58.16329015 145.72000119 50.06640625 152.46484375 C41.14645838 159.09157251 31.89402144 160.6446527 20.96484375 159.53515625 C17.09706038 158.8370188 14.82056835 157.74634287 12 155 C8.75139528 150.23537975 8.71211735 146.56573129 9 141 C8.34 141 7.68 141 7 141 C6.79375 141.66 6.5875 142.32 6.375 143 C2.19565194 152.11857758 -4.66960418 158.19490566 -13.6875 162.375 C-20.98362245 165.05061964 -29.37851662 165.5901088 -36.5625 162.3125 C-41.0005722 159.91060346 -43.54584472 156.44550169 -45.046875 151.66796875 C-45.27890625 150.51941406 -45.5109375 149.37085938 -45.75 148.1875 C-45.99234375 147.02605469 -46.2346875 145.86460937 -46.484375 144.66796875 C-46.65453125 143.78753906 -46.8246875 142.90710938 -47 142 C-47.72703125 142.96099609 -47.72703125 142.96099609 -48.46875 143.94140625 C-58.11255454 156.38562327 -68.36598775 164.63434459 -84 168 C-92.73961094 168.96392768 -100.25066216 167.8496027 -107.8125 163.3125 C-114.49623845 156.24683363 -115.33404861 147.82167467 -115.20703125 138.45703125 C-114.0512176 119.1571241 -106.03156022 96.91803644 -92.76953125 82.5234375 C-88.87227366 79.16818262 -84.45185876 76.54872277 -80 74 C-79.3709375 73.61199219 -78.741875 73.22398437 -78.09375 72.82421875 C-72.80357415 70.7417055 -65.16300522 70.90031718 -59.8203125 72.7578125 C-56.83230151 74.64575974 -55.27554303 76.77727844 -54 80 C-52.48315314 92.5404432 -55.87963967 104.10929542 -62.97265625 114.44140625 C-70.91460112 124.46447733 -82.07232786 131.54670402 -94 136 C-94.34056149 145.04006221 -94.34056149 145.04006221 -90.375 152.9375 C-86.76789751 154.55120375 -83.81175681 154.76481852 -80 154 C-70.45109857 150.24058999 -63.29422077 145.07762205 -57 136.9375 C-56.195625 135.91527344 -55.39125 134.89304687 -54.5625 133.83984375 C-53.69099418 132.57163834 -52.83833797 131.2903708 -52 130 C-51.50242187 129.25975586 -51.00484375 128.51951172 -50.4921875 127.75683594 C-44.87960037 118.18511856 -43.9637884 107.60335818 -42.47189331 96.78201294 C-41.67679318 91.04148562 -40.8072135 85.31224983 -39.94140625 79.58203125 C-39.69119469 77.9140876 -39.69119469 77.9140876 -39.43592834 76.21244812 C-30.54168987 17.5778327 -30.54168987 17.5778327 -14.1875 3.1875 C-9.29942904 -0.1670585 -5.8778105 -0.83120552 0 0 Z M-6 10 C-9.17278373 14.25890265 -11.21200629 18.51270616 -12.875 23.5625 C-13.12475586 24.3162793 -13.37451172 25.07005859 -13.63183594 25.84667969 C-19.53661175 44.60779633 -24.68099848 66.2510442 -24 86 C-20.9099049 82.3472024 -19.15128984 78.27977963 -17.25 73.9375 C-16.90364502 73.14819092 -16.55729004 72.35888184 -16.20043945 71.5456543 C-3.13368716 42.70456932 -3.13368716 42.70456932 -4.01953125 12.0703125 C-4.50486328 11.04550781 -4.50486328 11.04550781 -5 10 C-5.33 10 -5.66 10 -6 10 Z M-76.17578125 84.7109375 C-85.75305326 91.47860295 -91.79041019 105.81637436 -94 117 C-94.04206233 118.66613581 -94.05288341 120.33417254 -94 122 C-82.39227529 118.37258603 -73.45136696 107.03458316 -67.875 96.6875 C-65.97898965 92.56949856 -65.512065 89.48900201 -66 85 C-69.78228021 82.82232351 -72.22785207 82.74125483 -76.17578125 84.7109375 Z " fill="#000000" transform="translate(661,404)"/>
<path d="M0 0 C2.30898471 2.2349366 2.9498621 3.59432913 3.34570312 6.79711914 C2.36414112 55.15763831 -15.95644632 118.03736301 -50.41796875 153.6328125 C-56.52813253 159.23456628 -62.35623077 162.41868956 -70.72265625 162.26953125 C-74.40610314 161.83358299 -76.27810852 160.4744468 -79 158 C-86.19383307 148.60805127 -87.19573442 138.49730696 -87.1875 127 C-87.18814453 126.05753418 -87.18878906 125.11506836 -87.18945312 124.14404297 C-87.11143191 113.37888905 -86.11481564 102.70045121 -85 92 C-85.4532666 93.05799805 -85.9065332 94.11599609 -86.37353516 95.20605469 C-88.0808579 99.18856995 -89.7929367 103.16902654 -91.50634766 107.14892578 C-92.24264173 108.86094609 -92.97770125 110.57349797 -93.71142578 112.28662109 C-112.29565268 155.66671962 -112.29565268 155.66671962 -131 165 C-137.52511809 167.44691928 -143.05505399 167.89845811 -149.6875 165.875 C-154.98374174 162.87712732 -158.22359267 158.92135778 -160 153 C-160.346157 151.00217958 -160.68094776 149.00232784 -161 147 C-161.56847656 147.64066406 -162.13695312 148.28132812 -162.72265625 148.94140625 C-165.13325378 151.64175841 -167.56115596 154.3251388 -170 157 C-170.57234375 157.6290625 -171.1446875 158.258125 -171.734375 158.90625 C-176.0966815 163.48451226 -181.02688303 167.01336239 -186.23046875 170.59375 C-191.64852814 175.30111895 -193.46771196 180.85724783 -195.1875 187.625 C-199.35425856 202.70109006 -205.37813879 217.56927247 -215 230 C-215.55042969 230.7425 -216.10085938 231.485 -216.66796875 232.25 C-222.3445184 239.36928318 -230.19052252 244.63210223 -239 247 C-245.63907293 247.62039881 -252.43340578 248.13926237 -258 244 C-262.83717107 239.02846307 -264.10998401 234.164318 -264.4375 227.375 C-264.16819757 215.28631326 -258.29690645 207.25376829 -250 199 C-249.11634766 198.04480469 -249.11634766 198.04480469 -248.21484375 197.0703125 C-239.93598588 188.2630169 -229.34648446 182.83925941 -218.68359375 177.45117188 C-213.38815231 174.67197812 -209.5702358 172.63986975 -207 167 C-205.88650695 163.41147968 -205.04103653 159.79660353 -204.25 156.125 C-204.02957031 155.15046875 -203.80914062 154.1759375 -203.58203125 153.171875 C-203.04347883 150.78351208 -202.51651944 148.39320673 -202 146 C-202.40089844 146.67804688 -202.80179688 147.35609375 -203.21484375 148.0546875 C-208.8235141 157.23713646 -215.47588667 167.59035467 -225.875 171.75 C-232.17316531 172.49096062 -236.58012418 172.57219088 -242 169 C-245.82965008 165.27385398 -246.58649697 162.27216362 -247 157 C-247.66 157 -248.32 157 -249 157 C-249.26167969 157.5775 -249.52335938 158.155 -249.79296875 158.75 C-254.79520445 168.07455587 -263.07135984 173.9450338 -273 177 C-277.85620435 177.65846839 -281.24620282 177.0583761 -285.43994141 174.38134766 C-289.29081188 170.97160976 -291.10607226 165.82212493 -291.77734375 160.8203125 C-292.72009583 144.84006157 -287.22087416 130.7377651 -281.97654724 115.927948 C-279.81633755 109.71711484 -278.29994648 103.44895869 -277 97 C-294.69385078 103.13868293 -304.71609353 125.79413814 -312.36279297 141.48632812 C-314.20694494 145.44413236 -315.94691241 149.43734936 -317.66015625 153.453125 C-317.96977798 154.17601212 -318.27939972 154.89889923 -318.59840393 155.64369202 C-320.13010962 159.23016324 -321.63643994 162.82435591 -323.10473633 166.43725586 C-323.66055341 167.76433473 -324.21676874 169.0912469 -324.7734375 170.41796875 C-325.25216309 171.59125732 -325.73088867 172.7645459 -326.22412109 173.97338867 C-328.32926887 177.5611694 -330.35581241 179.05313402 -334 181 C-336.90826342 180.93236597 -338.3245924 180.51059522 -340.6328125 178.765625 C-342.49084795 176.36610493 -342.30419832 174.80775685 -342.1875 171.8125 C-342.14689453 170.46091797 -342.14689453 170.46091797 -342.10546875 169.08203125 C-342.07066406 168.39496094 -342.03585937 167.70789063 -342 167 C-343.12954847 168.12954847 -344.17231512 169.34332067 -345.22265625 170.546875 C-358.41449084 185.51218451 -358.41449084 185.51218451 -367.7421875 186.203125 C-369.29292969 186.22632813 -369.29292969 186.22632813 -370.875 186.25 C-372.41800781 186.28867187 -372.41800781 186.28867187 -373.9921875 186.328125 C-378.80359465 185.80324422 -381.32713561 183.67286439 -384.6875 180.3125 C-389.98746883 173.44093158 -389.3255763 165.61299468 -388.36279297 157.39837646 C-386.94199396 148.00566159 -384.34893599 138.77232496 -382.0625 129.5625 C-381.50485212 127.27693823 -380.94820382 124.99113233 -380.39257812 122.70507812 C-378.95084233 116.79760339 -377.50671918 110.89128879 -376 105 C-375.72834518 103.91897003 -375.72834518 103.91897003 -375.45120239 102.81610107 C-374.23235427 98.20726001 -374.23235427 98.20726001 -372.046875 96.2578125 C-363.63768116 92.11042098 -363.63768116 92.11042098 -359 92 C-357.515 92.99 -357.515 92.99 -356 94 C-355.40434684 99.56586738 -356.67972076 104.22402 -358.30078125 109.46875 C-358.65634346 110.66570496 -358.65634346 110.66570496 -359.01908875 111.88684082 C-359.77459269 114.42734806 -360.54233668 116.96390176 -361.3125 119.5 C-368.01385558 140.2663193 -368.01385558 140.2663193 -370.25 161.8125 C-370.23453125 162.95332031 -370.2190625 164.09414063 -370.203125 165.26953125 C-370.17643164 167.96349203 -370.17643164 167.96349203 -369 170 C-361.65175911 169.3319781 -357.13596216 164.39863816 -352.625 159.0625 C-347.58210348 152.69207175 -343.21716615 145.93453707 -339 139 C-338.34128906 137.9471582 -337.68257812 136.89431641 -337.00390625 135.80957031 C-334.78787461 131.90746463 -333.80009159 128.05556436 -332.89453125 123.6875 C-332.64022591 122.5286731 -332.64022591 122.5286731 -332.38078308 121.34643555 C-331.84700778 118.89985857 -331.32982424 116.45010173 -330.8125 114 C-330.45479799 112.35654807 -330.09608255 110.71331637 -329.73632812 109.0703125 C-327.87227776 100.6165868 -327.87227776 100.6165868 -326.4934082 92.07568359 C-326 89 -326 89 -324.3984375 87.4765625 C-319.96049001 85.60885487 -315.89119876 84 -311 84 C-308.5 85.375 -308.5 85.375 -307 88 C-306.88228638 94.61879469 -309.00082547 100.95893973 -311 107.1875 C-313.47253011 114.97780099 -313.47253011 114.97780099 -315 123 C-314.59910156 122.27296875 -314.19820313 121.5459375 -313.78515625 120.796875 C-305.50629561 106.15399223 -294.07389075 86.95469295 -277.42578125 81.09375 C-273.29169212 80.05559309 -270.7352678 79.7685268 -266.625 81.0625 C-262.60099148 84.03260153 -260.34451174 86.2581351 -259.35522461 91.26000977 C-258.3068716 102.29761785 -261.88169113 112.46687185 -265.9375 122.5625 C-270.73628524 134.65376238 -275.25246647 146.77684438 -274 160 C-273.67 160.66 -273.34 161.32 -273 162 C-263.28234063 159.61017562 -256.49743068 149.80354401 -251.35546875 141.63696289 C-244.88059774 130.58478135 -241.52158528 118.23386222 -238 106 C-237.7637793 105.19449707 -237.52755859 104.38899414 -237.28417969 103.55908203 C-235.56948669 97.67881764 -233.95799502 91.95256022 -233.5625 85.8125 C-233 82 -233 82 -230.75 79.5625 C-226.03582668 76.88399243 -222.51947841 75.40005669 -217 76 C-215.07483739 77.48264893 -214.1441731 78.44253067 -213.53125 80.8125 C-213.3092936 96.34944773 -220.24544176 111.99587591 -225.52099609 126.30419922 C-229.75425892 137.25800992 -229.75425892 137.25800992 -231.25 148.8125 C-231.25773437 149.90498047 -231.25773437 149.90498047 -231.265625 151.01953125 C-231.10485171 153.31849127 -231.10485171 153.31849127 -229 156 C-225.71400665 156.60851729 -224.36252714 156.2412962 -221.5703125 154.3828125 C-202.35072415 136.63693061 -194.28617946 112.8901326 -189.17919922 87.90893555 C-186.61470183 75.84012287 -186.61470183 75.84012287 -181.25 71.625 C-177.72025432 70.64451509 -174.66462544 70.76357255 -171 71 C-168.60576723 73.39423277 -168.70692184 73.93353921 -168.6953125 77.20703125 C-168.84756967 84.19214084 -170.37408048 90.89012081 -171.875 97.6875 C-172.18037553 99.10676287 -172.48571317 100.5260339 -172.79101562 101.9453125 C-175.77488295 115.62996492 -179.28488696 129.1840578 -182.88623047 142.7175293 C-183.10064789 143.53074142 -183.31506531 144.34395355 -183.53598022 145.18180847 C-183.94129564 146.71705152 -184.35158866 148.25099139 -184.76748657 149.78340149 C-185.22263829 151.51119782 -185.61821111 153.25452571 -186 155 C-185.67 155.33 -185.34 155.66 -185 156 C-177.6496348 150.37147232 -172.43758489 144.25483445 -167.5 136.4375 C-166.99629883 135.64690186 -166.49259766 134.85630371 -165.97363281 134.04174805 C-159.90764229 124.12444905 -157.86703219 113.53540109 -155.625 102.25 C-155.47448181 101.49976563 -155.32396362 100.74953125 -155.16888428 99.9765625 C-152.72410084 87.70713845 -150.77189314 75.40054311 -149.125 63 C-149.02181458 62.22321899 -148.91862915 61.44643799 -148.81231689 60.64611816 C-146.72240131 44.89201666 -146.72240131 44.89201666 -145.89453125 29.03515625 C-145.87970703 28.05095703 -145.86488281 27.06675781 -145.84960938 26.05273438 C-145.8245323 24.03204993 -145.81985297 22.01102501 -145.83398438 19.99023438 C-145.77323828 17.20511787 -145.65702265 14.70781663 -145 12 C-141.02505739 8.31523915 -137.42203001 7 -132 7 C-129.24512682 8.02965439 -127.43696309 9.24538658 -125 11 C-122.12566264 19.62301208 -124.39487422 29.94688237 -125.5625 38.75 C-125.64792053 39.40362518 -125.73334106 40.05725037 -125.8213501 40.73068237 C-128.77404803 63.1519576 -132.97833247 85.41124727 -137.58056641 107.546875 C-142.76345585 127.42257091 -142.76345585 127.42257091 -140 147 C-134.37836059 146.88288251 -131.31618256 145.43445744 -127.27734375 141.53515625 C-108.01073596 120.08742305 -97.76132842 91.0243792 -89 64 C-88.72865234 63.17177734 -88.45730469 62.34355469 -88.17773438 61.49023438 C-84.60455569 50.36618751 -82.61693019 39.00656487 -80.78588867 27.47851562 C-80.59615479 26.32416016 -80.4064209 25.16980469 -80.2109375 23.98046875 C-79.96802979 22.43202271 -79.96802979 22.43202271 -79.72021484 20.85229492 C-78.75444024 17.02750012 -77.41577591 13.95543159 -74.08984375 11.7109375 C-71.81553953 10.93724896 -69.96325062 10.66660746 -67.5625 10.625 C-66.82128906 10.59664063 -66.08007812 10.56828125 -65.31640625 10.5390625 C-62.01443414 11.19611597 -60.39330033 12.66947232 -58 15 C-57.62719727 17.33569336 -57.62719727 17.33569336 -58.00390625 20.15234375 C-58.14070801 21.30718262 -58.27750977 22.46202148 -58.41845703 23.65185547 C-58.50992004 24.32577332 -58.60138306 24.99969116 -58.69561768 25.69403076 C-59.04346468 28.32928398 -59.34002991 30.96787289 -59.63232422 33.60986328 C-60.37214256 40.26416308 -61.15339336 46.91329446 -61.9375 53.5625 C-62.97409412 62.37323606 -63.99812503 71.1852456 -65 80 C-65.16057892 81.39377365 -65.16057892 81.39377365 -65.32440186 82.81570435 C-66.57453773 93.78244036 -67.3259763 104.60976101 -67.26074219 115.65063477 C-67.24976819 117.85915135 -67.26087138 120.06689428 -67.2734375 122.27539062 C-67.27211934 123.71093926 -67.2695641 125.14648742 -67.265625 126.58203125 C-67.26224121 128.47272339 -67.26224121 128.47272339 -67.25878906 130.40161133 C-66.98123175 134.26096714 -66.18709458 137.33468341 -65 141 C-60.61501117 141.44854473 -60.61501117 141.44854473 -56.9453125 139.3046875 C-32.84511865 107.1366176 -9.70592656 47.05851406 -15.5 6.5 C-15.665 5.675 -15.83 4.85 -16 4 C-10.50916791 0.72886599 -6.42962391 -0.87181341 0 0 Z M-217.4375 190 C-220.62274086 192.86268482 -223.89334715 195.44355008 -227.375 197.9375 C-241.70364237 208.02694021 -241.70364237 208.02694021 -252 222 C-252.48848851 226.23356707 -252.38672608 229.05442705 -249.875 232.5 C-247.27737977 235.25257468 -247.27737977 235.25257468 -244.1875 235.25 C-230.08334517 229.71895889 -222.88419463 215.00280009 -217.06298828 201.88916016 C-213.5704285 194.65544435 -213.5704285 194.65544435 -212 187 C-214.77321335 187 -215.42423563 188.12485979 -217.4375 190 Z " fill="#000000" transform="translate(562,420)"/>
<path d="M0 0 C0.31464883 5.24414718 -0.16143267 8.53939419 -3 13 C-11.77897268 20.57634151 -26.16110827 20.09679209 -37.1875 21.1875 C-38.9200085 21.36569624 -40.65243145 21.54472633 -42.38476562 21.72460938 C-46.58891974 22.15935366 -50.79406848 22.58281698 -55 23 C-57.72901336 28.76738452 -59.20456087 34.4833802 -60.56640625 40.703125 C-60.80153427 41.75372101 -61.03666229 42.80431702 -61.27891541 43.88674927 C-62.04825808 47.33941753 -62.80616164 50.79446131 -63.5625 54.25 C-63.82434082 55.43684387 -64.08618164 56.62368774 -64.35595703 57.84649658 C-68.28013652 75.64796382 -71.99205506 93.48697232 -75.5 111.375 C-75.70110382 112.39726685 -75.90220764 113.41953369 -76.10940552 114.47277832 C-78.2930001 125.61328675 -80.35017241 136.77162409 -82.24609375 147.96484375 C-82.41488037 148.94983856 -82.58366699 149.93483337 -82.75756836 150.94967651 C-83.83245221 157.41521714 -84.48864715 163.73379323 -84.62890625 170.29296875 C-85.07098957 173.51785021 -86.09687909 175.37923445 -88 178 C-92.37505583 181.12503988 -95.71728846 181.22827115 -100.8515625 180.71484375 C-103.81601462 179.72848968 -105.04767857 178.43820025 -107 176 C-108.88385642 164.85105897 -105.86155831 153.00462918 -103.65625 142.1015625 C-103.29643208 140.27223192 -102.9372781 138.44277064 -102.57873535 136.6131897 C-98.40837632 115.50339516 -93.80052231 94.48313057 -89.17944336 73.46838379 C-88.02167869 68.19728885 -86.87055653 62.92474321 -85.71875 57.65234375 C-83.48539048 47.43352648 -81.24513046 37.21623713 -79 27 C-79.77589478 27.16018112 -80.55178955 27.32036224 -81.35119629 27.48539734 C-83.87261941 27.97525283 -86.28296637 28.2272477 -88.84375 28.39453125 C-104.64578234 29.54252422 -120.1285066 31.45610353 -132.5859375 42.34765625 C-140.72002563 51.85240564 -141.71339189 62.09362956 -141.17919922 74.04785156 C-140.81308121 78.03624337 -139.42684956 80.88082832 -137 84 C-136.51789063 84.63292969 -136.03578125 85.26585937 -135.5390625 85.91796875 C-132.98840244 89.05774065 -130.40876761 91.77119041 -127 94 C-127.2676756 97.30133235 -127.5603835 98.62503298 -130.125 100.8125 C-134.58058693 102.65285112 -137.8681796 102.73090985 -142.4609375 101.15625 C-150.10396391 97.75934937 -154.1619709 93.61230428 -157.25 85.86328125 C-161.87281317 71.52935013 -161.04962104 57.59163221 -154.875 43.875 C-147.0398407 29.26031663 -133.30480774 20.0546757 -117.88452148 14.97338867 C-106.15163082 11.69114201 -94.24796898 10.09874596 -82.1875 8.5 C-81.08248138 8.35003571 -79.97746277 8.20007141 -78.83895874 8.04556274 C-61.28101545 5.66463474 -43.70576323 3.72554217 -26.04956055 2.2421875 C-25.22390594 2.17107254 -24.39825134 2.09995758 -23.5475769 2.02668762 C-22.0347646 1.89754606 -20.52145841 1.77398434 -19.00759888 1.65776062 C-15.46035412 1.35610695 -12.11068257 0.83003275 -8.67651367 -0.07495117 C-5.16555952 -0.95834351 -3.3950388 -1.06094963 0 0 Z " fill="#000000" transform="translate(224,439)"/>
<path d="M0 0 C2.54968173 2.22069054 2.93855019 3.52888481 3.375 6.875 C2.8151749 11.54020913 1.4364688 14.69411927 -2.0625 17.875 C-6.38009545 19.52854719 -10.43705502 19.71681399 -15 19 C-17.57637471 17.11484777 -18.59667428 15.80665143 -20 13 C-20.55403758 8.93705772 -20.17670734 7.28714943 -18 3.75 C-13.2414573 -1.3714824 -6.49157325 -1.7820005 0 0 Z " fill="#000000" transform="translate(215,479)"/>
<path d="M0 0 C0.33 0 0.66 0 1 0 C-0.22992722 59.83595918 -13.37016286 119.42898671 -38 174 C-38.39364746 174.88075195 -38.78729492 175.76150391 -39.19287109 176.66894531 C-51.10806347 203.13090629 -65.91619748 229.0451222 -83.5625 252.11816406 C-85.11546612 254.15115708 -86.65179999 256.19612565 -88.1875 258.2421875 C-94.84826733 267.07820098 -101.74553985 275.64567008 -109 284 C-109.63421875 284.73476563 -110.2684375 285.46953125 -110.921875 286.2265625 C-112.60275088 288.16188289 -114.29968393 290.08174111 -116 292 C-116.63591064 292.72074707 -117.27182129 293.44149414 -117.92700195 294.18408203 C-123.60406059 300.56269694 -129.51219228 306.66347892 -135.5625 312.6875 C-136.45646484 313.58533203 -137.35042969 314.48316406 -138.27148438 315.40820312 C-143.35214541 320.48143085 -148.52931276 325.35122821 -154 330 C-155.00950639 330.87715344 -156.01864793 331.75472705 -157.02734375 332.6328125 C-176.72619442 349.50243227 -197.8375892 364.54614416 -220 378 C-220.78761719 378.47904785 -221.57523438 378.9580957 -222.38671875 379.45166016 C-246.31193686 393.86826283 -271.67855783 405.69606933 -298 415 C-299.76827148 415.63180176 -299.76827148 415.63180176 -301.57226562 416.27636719 C-338.08268722 429.22202434 -375.42595214 436.73756043 -414 440 C-415.06089844 440.09643799 -416.12179687 440.19287598 -417.21484375 440.29223633 C-427.88731431 441.17662125 -438.54841829 441.20077979 -449.25 441.1875 C-450.22587067 441.18656342 -451.20174133 441.18562683 -452.20718384 441.18466187 C-516.73966306 441.05066339 -579.49777247 426.31981602 -638 399 C-638.86496094 398.59845703 -639.72992187 398.19691406 -640.62109375 397.78320312 C-662.25618425 387.6406997 -682.5904315 374.89233765 -702 361 C-702.79100098 360.4342627 -703.58200195 359.86852539 -704.39697266 359.28564453 C-714.80216568 351.80567321 -724.96761756 344.05857131 -734.79882812 335.83642578 C-736.44975014 334.45907048 -738.11180798 333.09504456 -739.77929688 331.73779297 C-748.54255091 324.54089119 -756.59442626 316.71346061 -764.58544922 308.67529297 C-766.75396674 306.49601358 -768.93303243 304.32769225 -771.11328125 302.16015625 C-777.84015578 295.43931406 -784.36351292 288.731502 -790.23022461 281.23510742 C-792.00176429 278.99777182 -793.87134107 276.90324266 -795.8125 274.8125 C-801.69529754 268.26306338 -806.80043486 261.09282873 -812 254 C-812.43602539 253.41057617 -812.87205078 252.82115234 -813.32128906 252.21386719 C-857.51241079 192.40555467 -884.49099022 120.89185158 -892 47 C-889.20760027 47.64279009 -886.41609416 48.28908665 -883.625 48.9375 C-882.8309375 49.11990234 -882.036875 49.30230469 -881.21875 49.49023438 C-880.07792969 49.75610352 -880.07792969 49.75610352 -878.9140625 50.02734375 C-878.2123291 50.18968506 -877.5105957 50.35202637 -876.78759766 50.51928711 C-875 51 -875 51 -873 52 C-872.47442232 54.34421885 -872.0759614 56.61504058 -871.73828125 58.98828125 C-871.50871668 60.48013845 -871.27863211 61.97191571 -871.0480957 63.46362305 C-870.92890778 64.25360687 -870.80971985 65.0435907 -870.68692017 65.85751343 C-864.9572953 103.42534065 -854.40501414 139.68121334 -838 174 C-837.48679199 175.07862305 -836.97358398 176.15724609 -836.44482422 177.26855469 C-818.99564622 213.67453665 -796.6041438 247.85461321 -769.1953125 277.59375 C-767.3588622 279.60665638 -765.57802679 281.65019645 -763.80078125 283.71484375 C-759.74625153 288.35926101 -755.43157658 292.71554533 -751.0625 297.0625 C-750.30259766 297.82626953 -749.54269531 298.59003906 -748.75976562 299.37695312 C-744.00293224 304.12566212 -739.10546664 308.63050487 -734 313 C-732.92882307 313.93781564 -731.85846494 314.87656763 -730.7890625 315.81640625 C-649.85058799 386.32269762 -547.67143189 424.40555061 -419.25 422.25 C-338.32833448 416.26414932 -261.57249101 387.56304822 -196 340 C-195.27796387 339.47905762 -194.55592773 338.95811523 -193.81201172 338.42138672 C-183.74594672 331.13022765 -174.22807201 323.3241196 -165 315 C-164.11078857 314.19836426 -163.22157715 313.39672852 -162.30541992 312.57080078 C-155.48193153 306.38534036 -148.8467743 300.03312407 -142.33520508 293.52050781 C-140.80762584 291.99513287 -139.27216418 290.47799328 -137.73632812 288.9609375 C-131.3717245 282.63195797 -125.59775489 276.0277756 -120 269 C-119.07675858 267.91005596 -118.14714161 266.82542793 -117.20703125 265.75 C-63.50026572 204.07045199 -28.25898235 121.02840544 -20.265625 39.828125 C-20.14598389 38.64541016 -20.02634277 37.46269531 -19.90307617 36.24414062 C-19.6812956 33.96878323 -19.47987769 31.69131936 -19.30200195 29.41210938 C-18.56673871 21.72827729 -18.56673871 21.72827729 -15.546875 17.84765625 C-13.40243574 16.29195108 -11.44981088 14.9980711 -9 14 C-9 13.34 -9 12.68 -9 12 C-8.2575 11.278125 -7.515 10.55625 -6.75 9.8125 C-3.69857402 6.69172343 -2.03053057 3.83544663 0 0 Z " fill="#000000" transform="translate(963,509)"/>
<path d="M0 0 C5.11893801 5.4014401 8.18188793 11.11249861 8.04296875 18.68359375 C7.23816315 25.11054133 3.53471183 29.85775593 -1.4140625 33.8125 C-4.0677765 35.35336619 -6.24832357 35.30359899 -9.23046875 34.8671875 C-9.65501907 30.72782186 -8.99629304 28.04184298 -7.23046875 24.3671875 C-5.48357777 20.66203795 -4.56898675 18.02507435 -5.23046875 13.8671875 C-8.3379361 7.3650941 -13.84251654 5.51547832 -20.23046875 2.8671875 C-43.39063799 -4.97396784 -69.73703759 -1.91913563 -93.23046875 2.8671875 C-94.18066895 3.06022461 -95.13086914 3.25326172 -96.10986328 3.45214844 C-124.69114044 9.49694711 -152.64968326 19.90514098 -179.23046875 31.8671875 C-180.95047342 32.63422092 -182.67052351 33.40115249 -184.390625 34.16796875 C-187.61252805 35.61012368 -190.82918747 37.06328364 -194.04296875 38.5234375 C-200.27363836 41.34840145 -206.53243772 44.1091734 -212.79296875 46.8671875 C-213.88295166 47.34865234 -214.97293457 47.83011719 -216.09594727 48.32617188 C-217.11100342 48.77283203 -218.12605957 49.21949219 -219.171875 49.6796875 C-220.07623291 50.07800781 -220.98059082 50.47632813 -221.91235352 50.88671875 C-224.23046875 51.8671875 -224.23046875 51.8671875 -227.23046875 52.8671875 C-221.76021461 55.02568688 -216.39942816 56.69547723 -210.66796875 57.9921875 C-209.59385742 58.24548828 -209.59385742 58.24548828 -208.49804688 58.50390625 C-201.8338704 60.04412538 -195.42893067 61.01394317 -188.5625 60.82421875 C-187.33982422 60.80294922 -186.11714844 60.78167969 -184.85742188 60.75976562 C-182.30246789 60.7061286 -179.74773214 60.64091583 -177.19335938 60.56445312 C-175.97455078 60.54705078 -174.75574219 60.52964844 -173.5 60.51171875 C-172.39245361 60.48440674 -171.28490723 60.45709473 -170.14379883 60.42895508 C-166.54686382 60.97001754 -165.37658243 61.97757428 -163.23046875 64.8671875 C-163.23046875 65.8571875 -163.23046875 66.8471875 -163.23046875 67.8671875 C-171.71653992 74.71079328 -184.94389055 73.62372829 -195.23046875 72.8671875 C-205.28119631 71.77395047 -215.07131655 69.5580132 -224.76171875 66.71484375 C-225.40658737 66.52767792 -226.05145599 66.34051208 -226.71586609 66.14767456 C-229.90674024 65.21797744 -233.07906222 64.25830727 -236.24536133 63.24609375 C-243.83359045 60.96590504 -248.0839361 60.54929373 -255.23046875 63.8671875 C-257.06768757 64.51998331 -258.91202585 65.15296695 -260.76171875 65.76953125 C-261.72843506 66.10082031 -262.69515137 66.43210937 -263.69116211 66.7734375 C-303.43804003 80.25972654 -303.43804003 80.25972654 -318.35546875 74.2421875 C-320.36328125 73.1328125 -320.36328125 73.1328125 -322.23046875 71.8671875 C-322.90851563 71.40828125 -323.5865625 70.949375 -324.28515625 70.4765625 C-327.28661541 68.18629246 -328.96632778 66.54221442 -330.35546875 62.9921875 C-330.13831694 57.56339236 -328.46230849 53.52247216 -325.23046875 49.1796875 C-316.53610784 42.4777843 -306.08687683 39.47155826 -295.23046875 39.4921875 C-294.37396729 39.49307373 -293.51746582 39.49395996 -292.63500977 39.49487305 C-280.09551913 39.71716043 -267.48476348 41.97140496 -255.484375 45.56640625 C-246.05608347 48.1336838 -239.26654393 44.39563402 -230.73046875 40.4921875 C-228.93403931 39.68297852 -228.93403931 39.68297852 -227.10131836 38.85742188 C-219.61067491 35.47326449 -212.18957972 31.95193124 -204.79296875 28.3671875 C-165.87110744 9.54905934 -125.94901261 -4.96063823 -83.23046875 -12.1328125 C-82.49683105 -12.26413574 -81.76319336 -12.39545898 -81.00732422 -12.53076172 C-55.99153373 -16.95553439 -20.57022664 -17.69904778 0 0 Z M-319.23046875 59.8671875 C-315.39504665 64.66146512 -310.86745563 65.4299541 -305.0859375 66.125 C-291.09913411 66.83982811 -276.97026055 61.0111142 -264.23046875 55.8671875 C-270.62191419 49.47574206 -283.52294699 50.51969801 -291.91796875 50.4296875 C-292.97443604 50.4076123 -294.03090332 50.38553711 -295.11938477 50.36279297 C-304.67538138 50.38819394 -312.94130302 52.32018862 -319.23046875 59.8671875 Z " fill="#000000" transform="translate(765.23046875,604.1328125)"/>
<path d="M0 0 C0.33 0 0.66 0 1 0 C1.49060763 8.84955113 0.01099124 17.33096301 -1.5625 26 C-1.76315567 27.12015503 -1.76315567 27.12015503 -1.96786499 28.26293945 C-9.12796854 67.95854929 -22.59357003 106.46200569 -42.60058594 141.51708984 C-43.90002714 143.82262316 -45.15104987 146.14605807 -46.3828125 148.48828125 C-61.26993383 176.59891103 -81.35014535 202.04139952 -102.734375 225.48828125 C-104.00751726 226.8997131 -105.2737759 228.31768419 -106.51464844 229.75756836 C-111.05810675 235.02811019 -115.82755398 240.02029341 -120.75 244.9375 C-121.54494873 245.73164307 -122.33989746 246.52578613 -123.15893555 247.34399414 C-128.04152235 252.17591212 -132.96770369 256.7152731 -138.3828125 260.9453125 C-140.83798068 262.87280275 -143.20864154 264.87758644 -145.57006836 266.91821289 C-158.56917597 278.12393418 -172.40703676 287.98612658 -187 297 C-187.96276855 297.59828613 -188.92553711 298.19657227 -189.91748047 298.81298828 C-245.71110899 333.28829893 -311.37559856 357.07700045 -377.3828125 359.23046875 C-378.47996582 359.26688477 -379.57711914 359.30330078 -380.70751953 359.34082031 C-382.8617375 359.40407631 -385.0164659 359.45221098 -387.17138672 359.48339844 C-388.1460791 359.50821289 -389.12077148 359.53302734 -390.125 359.55859375 C-390.99382812 359.57204834 -391.86265625 359.58550293 -392.7578125 359.59936523 C-395.46289379 360.08271001 -396.30735464 360.88362333 -398 363 C-398.78602226 364.21950962 -399.55688736 365.44891845 -400.3125 366.6875 C-402.22720953 369.37844313 -402.71196502 369.90998907 -406 370.9375 C-410.0719074 369.66502894 -411.06338655 367.5491519 -413.1171875 363.9453125 C-414 362 -414 362 -414 360 C-415.216875 359.97421875 -416.43375 359.9484375 -417.6875 359.921875 C-508.54969149 357.2827977 -597.73454679 321.96899126 -666 262 C-666.92184082 261.20082153 -666.92184082 261.20082153 -667.86230469 260.38549805 C-685.61845386 244.96216332 -703.60079082 228.64989823 -718 210 C-718.91108146 208.87518302 -719.825365 207.75295498 -720.7421875 206.6328125 C-746.82681822 174.67999905 -769.31143096 138.81253493 -783.625 100 C-784.13981934 98.61071289 -784.13981934 98.61071289 -784.66503906 97.19335938 C-784.9740918 96.32517578 -785.28314453 95.45699219 -785.6015625 94.5625 C-785.87307129 93.80066406 -786.14458008 93.03882813 -786.42431641 92.25390625 C-787.06127271 89.76010615 -787.10116204 87.56352517 -787 85 C-785.42120045 84.72280619 -783.83646933 84.47925857 -782.25 84.25 C-780.92742187 84.04117188 -780.92742187 84.04117188 -779.578125 83.828125 C-777 84 -777 84 -774.97143555 85.70166016 C-772.91229476 88.10224856 -771.96098903 89.99025588 -770.87890625 92.9453125 C-770.50765625 93.92693359 -770.13640625 94.90855469 -769.75390625 95.91992188 C-769.36074219 96.97759766 -768.96757813 98.03527344 -768.5625 99.125 C-753.32393249 138.58365436 -730.07444002 173.70406083 -703 206 C-702.67128906 205.443125 -702.34257813 204.88625 -702.00390625 204.3125 C-694.94606345 192.9893484 -685.72764978 186.05243095 -672.7109375 182.890625 C-639.9406435 176.00845482 -607.87207757 193.38438137 -580.81811523 209.64916992 C-575.74112756 212.66566614 -570.62457639 215.14817387 -565 217 C-564.67 216.67 -564.34 216.34 -564 216 C-564.40726318 215.60321045 -564.81452637 215.2064209 -565.23413086 214.79760742 C-573.31372098 206.89809563 -581.16894834 199.0313155 -588 190 C-588.75023437 189.02804687 -589.50046875 188.05609375 -590.2734375 187.0546875 C-596.55668311 178.70746129 -601.76732189 169.78449942 -606.91479492 160.70239258 C-610.20605711 154.92450458 -613.68010489 149.43398281 -617.6105957 144.06738281 C-619 142 -619 142 -620 139 C-621.71519747 137.97348627 -621.71519747 137.97348627 -624 137 C-625.19236674 136.32097566 -626.37953458 135.63277355 -627.5625 134.9375 C-632.8202531 131.97403916 -637.06417898 131.28888667 -643 132 C-648.54632865 133.98932645 -652.38238611 137.76477222 -655 143 C-655.37163682 147.45964184 -655.40216659 150.06770473 -653.625 154.1875 C-650.00093195 158.07043006 -645.82989127 159.91687896 -641 162 C-640.8125 166.7734375 -640.8125 166.7734375 -642.5 168.8125 C-646.10416595 170.52447883 -649.16295768 170.96100152 -653 170 C-659.69832856 165.92919259 -664.53810968 159.38567095 -667 152 C-667.89063054 143.64079619 -667.0695188 136.86956532 -662 130 C-655.11253786 123.18458244 -646.48631406 119.96005965 -636.875 119.6875 C-627.25160619 119.8040687 -618.99721954 123.49333858 -612 130 C-605.75876246 136.87174722 -601.43800822 144.32774815 -597.25 152.5625 C-576.05849712 192.96254179 -542.80220705 226.43343613 -498.74609375 240.765625 C-484.50312517 245.15057098 -470.93562799 248.04130037 -455.98828125 245.8984375 C-452.10311337 246.03048242 -450.68067748 247.2655133 -448 250 C-447.4375 252.5625 -447.4375 252.5625 -448 255 C-452.56879665 259.40678258 -458.46694993 259.14076731 -464.47070312 259.10888672 C-488.45105853 258.07652779 -511.47340162 250.17099392 -534.08007812 242.78588867 C-557.09023542 235.3691042 -583.3682673 230.63096507 -607 238 C-608.37671875 238.41765625 -608.37671875 238.41765625 -609.78125 238.84375 C-617.28082619 241.46408385 -622.89886755 245.56178326 -627.0625 252.375 C-628.40386341 257.56160518 -628.13215497 262.19966978 -626.1171875 267.18359375 C-625.05281509 269.26668235 -625.05281509 269.26668235 -622.3125 270.375 C-618.30091534 271.13190277 -615.80095797 270.36834487 -612 269 C-611.29805007 267.19747131 -611.29805007 267.19747131 -611 265 C-611.33 264.360625 -611.66 263.72125 -612 263.0625 C-613.34017393 260.29839127 -612.98045978 258.86595935 -612 256 C-609 254 -609 254 -606.5625 254 C-602.81510338 255.46239868 -601.8285222 257.47356433 -600 261 C-598.86159689 265.17414475 -598.84206589 267.46116598 -600.0625 271.625 C-602.54076343 275.941975 -605.1766762 279.11341051 -610.07348633 280.65112305 C-612.04899089 281.1007487 -614.02449544 281.55037435 -616 282 C-600.91219763 291.96828705 -585.39839298 301.25312359 -569.05322266 309.01855469 C-567.67824421 309.67579765 -566.30809784 310.34324128 -564.94287109 311.02050781 C-523.4019467 331.60427998 -470.37614579 346.451775 -424 345 C-424.3609375 344.16339844 -424.721875 343.32679688 -425.09375 342.46484375 C-429.523876 331.35261104 -431.18955689 320.15110513 -427.1171875 308.53515625 C-424.7539205 303.17235807 -421.90518222 298.08406889 -419 293 C-418.5565625 292.21367188 -418.113125 291.42734375 -417.65625 290.6171875 C-416.7807101 289.07248496 -415.89244166 287.53499965 -415 286 C-422.0767097 286.9501138 -426.67831198 289.26827287 -432 294 C-432.55171875 294.42023438 -433.1034375 294.84046875 -433.671875 295.2734375 C-435.69110355 297.89843461 -435.58592973 300.42664634 -435.875 303.6875 C-437.05529893 313.0051444 -440.24919918 318.01209778 -447.44921875 323.87109375 C-452.23784659 327.35702182 -458.33741475 326.47684928 -464 326 C-469.42624756 324.43751244 -472.87752422 321.74616318 -476 317 C-478.19638311 312.60723378 -477.15460486 307.01352077 -476.4375 302.3125 C-474.04891945 296.80837961 -469.83625078 293.60958638 -464.4375 291.125 C-460.61824349 289.78826022 -457.43504446 290.1668713 -453.4375 290.5 C-444.33881869 290.79445571 -439.12345109 285.76427509 -432.51074219 280.19628906 C-430.78636222 278.83082981 -429.03280085 277.83941527 -427 277 C-434.01543507 275.89654922 -440.98382989 275.74644101 -448.07910156 275.70483398 C-449.43239849 275.6933681 -450.78565213 275.67300218 -452.13867188 275.64331055 C-464.90453855 275.36464102 -476.33028778 277.4791973 -487.5625 283.6875 C-488.17907471 284.02563721 -488.79564941 284.36377441 -489.4309082 284.7121582 C-493.71099546 287.11411925 -497.7062998 289.82410293 -501.6875 292.6875 C-511.79209634 299.86968858 -524.10944553 305.46327329 -536.7734375 303.5390625 C-544.88099075 301.57618119 -551.17170078 297.69250177 -556.25 291.0625 C-559.63142302 285.14500972 -560.89642159 279.75763971 -560 273 C-557.67018492 265.03734086 -551.69726232 260.29230264 -544.875 256.0625 C-538.24591302 253.60332257 -529.10868503 253.72127784 -522.625 256.5 C-521.75875 256.995 -520.8925 257.49 -520 258 C-520 262 -520 262 -522.0625 264.24609375 C-525.7069099 266.42207785 -527.79837016 266.32057425 -532 266.0625 C-537.08214831 265.76129509 -539.87393803 265.90175634 -544 269 C-546.08165135 271.35920486 -546.97033847 272.98038502 -547.0625 276.1484375 C-546.69906703 280.70649262 -546.03991332 284.43596369 -543 288 C-537.46672844 292.22275988 -530.62741718 291.70979558 -524 291 C-517.26219854 289.15673747 -511.67745908 284.92550389 -506 281 C-488.22399446 268.95906659 -471.49498344 264.43068336 -450.29101562 264.66381836 C-448.00094321 264.68749025 -445.71203998 264.68433498 -443.421875 264.67773438 C-433.48193287 264.69807042 -423.82862593 265.53792494 -414 267 C-417.09756425 262.24010928 -417.09756425 262.24010928 -420.69140625 257.859375 C-421.16126953 257.34632813 -421.63113281 256.83328125 -422.11523438 256.3046875 C-422.59283203 255.79164063 -423.07042969 255.27859375 -423.5625 254.75 C-424.04396484 254.22148438 -424.52542969 253.69296875 -425.02148438 253.1484375 C-429.38721784 248.41639078 -432.39750231 246.78099958 -438.6875 245.625 C-449.55705916 243.35725025 -456.84691139 239.35094773 -463.35546875 230.06640625 C-466.81756599 224.25458237 -467.81125729 218.68160519 -467 212 C-465.710415 208.34851205 -463.74982362 205.68366271 -460.875 203.0625 C-454.09414812 200.556533 -448.43601855 201.45348638 -441.9375 204.4375 C-431.41537822 210.23954402 -425.49339116 217.52371899 -422 229 C-421.27253143 232.32449369 -420.60129639 235.63122424 -420.06640625 238.9921875 C-418.58937441 243.15817473 -416.26617888 245.05472429 -413 248 C-412.74970319 243.7869271 -412.56999399 239.57795744 -412.45068359 235.35961914 C-412.40088732 233.93046616 -412.33301086 232.50180945 -412.24560547 231.07446289 C-411.69628167 221.99734581 -411.69628167 221.99734581 -415.14526367 213.7578125 C-417.74239405 210.88602239 -417.74239405 210.88602239 -420.48657227 208.4597168 C-426.60123857 202.47571844 -429.45966347 194.29529799 -430.3125 185.9375 C-429.21468475 172.10502779 -420.87838661 159.69500635 -414 148 C-413.49049805 147.11618652 -412.98099609 146.23237305 -412.45605469 145.32177734 C-411.95235352 144.49758301 -411.44865234 143.67338867 -410.9296875 142.82421875 C-410.48608887 142.08647217 -410.04249023 141.34872559 -409.58544922 140.58862305 C-408 139 -408 139 -405.421875 138.62573242 C-403 139 -403 139 -401.3203125 141.1640625 C-400.05881348 143.87367282 -398.93204356 146.57970704 -397.875 149.375 C-395.53080285 155.16402346 -392.56373626 160.32602725 -389.21044922 165.57177734 C-382.97694617 175.48096304 -381.17435437 185.15170418 -383.5859375 196.83984375 C-385.67843435 202.91576351 -389.42271522 207.12941435 -393.87890625 211.67578125 C-398.25632364 216.47239883 -399.3735441 219.74292755 -399.29296875 226.26953125 C-399.28872391 226.95053391 -399.28447906 227.63153656 -399.28010559 228.33317566 C-399.2634061 230.49336459 -399.22577312 232.65259642 -399.1875 234.8125 C-399.17244174 236.28318958 -399.15875534 237.75389389 -399.14648438 239.22460938 C-399.11353214 242.81671357 -399.06181173 246.40826326 -399 250 C-392.90140169 243.81111713 -392.90140169 243.81111713 -390.8125 235.5625 C-389.7277027 225.66229723 -385.47562141 216.1187581 -378.08203125 209.20703125 C-371.14499588 203.77279658 -364.75838723 201.30744859 -355.88671875 201.5078125 C-351.43851144 202.26623486 -348.68300771 204.43133926 -346 208 C-344.04522516 213.86432451 -344.23169397 219.88763132 -346.5625 225.625 C-350.90143756 234.19704738 -357.29350013 240.00496728 -366 244 C-368.13561241 244.63935725 -370.28236585 245.24239927 -372.4375 245.8125 C-381.51952811 248.40736518 -388.53318334 253.7968508 -393.1875 262.0625 C-393.81671635 263.3631769 -394.43159262 264.67162254 -395 266 C-394.01902344 265.855625 -393.03804687 265.71125 -392.02734375 265.5625 C-361.56654201 261.28061641 -336.29248176 265.90320917 -309.50048828 280.62646484 C-306.45838918 282.29751049 -303.40173074 283.94005174 -300.34008789 285.57495117 C-299.06768157 286.25486415 -297.79719813 286.93839313 -296.52905273 287.6262207 C-289.53809094 291.39539246 -282.32785802 292.47996056 -274.5390625 290.31640625 C-270.97658725 288.72057626 -269.25735157 287.36994288 -267 284.125 C-265.90982245 280.71819516 -265.48306673 278.5446853 -266 275 C-268.05076297 271.26468173 -270.0999823 267.89429431 -274 266 C-278.20625886 266.22138205 -280.47567443 266.65044962 -284 269 C-286.5 268.9375 -286.5 268.9375 -289 268 C-291.17951955 265.38457654 -291.96283192 263.78052965 -292.125 260.375 C-290.78435433 257.54474804 -289.42451378 256.56637012 -286.4921875 255.5078125 C-279.81233016 254.14671304 -271.20456711 253.34543602 -264.9375 256.5 C-258.84626382 261.68403079 -254.65015421 267.38017389 -253.71484375 275.46484375 C-253.27642774 283.47998767 -255.27035022 289.80082187 -260.64453125 295.8515625 C-267.79636169 302.40606173 -275.42824148 303.7441239 -284.8984375 303.39453125 C-296.67904717 302.5165578 -307.05370825 295.36869212 -317.12109375 289.7265625 C-337.92249554 278.07196231 -360.49794364 272.19078804 -384.41015625 277.5390625 C-384.93480469 277.69117188 -385.45945312 277.84328125 -386 278 C-385.35933594 278.37511719 -384.71867187 278.75023437 -384.05859375 279.13671875 C-383.19363281 279.64847656 -382.32867188 280.16023438 -381.4375 280.6875 C-380.509375 281.23019531 -379.58125 281.77289062 -378.625 282.33203125 C-376.4255634 283.72958992 -374.80717407 285.10185801 -372.9375 286.875 C-368.6610589 290.11813834 -363.35723102 289.14903342 -358.27587891 288.99169922 C-352.68141023 288.86547134 -348.35377542 289.12157475 -344 293 C-338.18498071 299.28757164 -335.47395379 304.9578471 -335.69140625 313.56640625 C-336.16470447 317.29887197 -337.45838036 319.26287115 -340 322 C-344.76171374 325.61890244 -348.40795593 326.65027668 -354.37890625 326.38671875 C-361.62993484 325.31689486 -367.95327813 322.28704196 -373 317 C-376.72787496 311.74980954 -377.45855537 306.87640495 -377.53125 300.515625 C-378.1585228 297.14926095 -379.34441046 296.12358496 -382 294 C-384.8428801 292.28254245 -384.8428801 292.28254245 -387.9375 290.8125 C-388.95714844 290.30332031 -389.97679687 289.79414062 -391.02734375 289.26953125 C-393.72784344 288.11622981 -396.10888338 287.44192022 -399 287 C-398.56429688 287.65484375 -398.12859375 288.3096875 -397.6796875 288.984375 C-390.07677402 300.63559305 -383.59012074 311.67261016 -383.6875 325.875 C-383.68951416 326.66712891 -383.69152832 327.45925781 -383.69360352 328.27539062 C-383.80714155 334.88371211 -385.01781846 340.03563692 -388 346 C-320.22872205 341.84297859 -255.71280122 323.63199063 -197.79296875 287.70703125 C-195.56237196 286.34371545 -193.36101506 285.11476498 -191 284 C-191.96099609 283.85304688 -191.96099609 283.85304688 -192.94140625 283.703125 C-200.04558425 282.47498096 -205.035856 280.80813642 -210.375 275.75 C-212.60802507 271.97103449 -212.86032404 269.39979285 -213 265 C-212.19812447 262.22988453 -211.54295041 261.37444856 -209.1875 259.75 C-206.57789447 258.8552781 -204.74047482 258.64865707 -202 259 C-200.1875 260.5 -200.1875 260.5 -199 262 C-199.350625 262.7425 -199.70125 263.485 -200.0625 264.25 C-201.04510094 267.13229609 -201.18154896 268.24305242 -200 271 C-196.79582279 272.6020886 -193.47660568 272.49285215 -190 272 C-186.55687286 269.8755173 -185.28382453 268.85147359 -184 265 C-183.22641227 258.57034463 -183.94523569 253.17697061 -188 248 C-201.73151284 234.86907023 -221.49565496 234.58624895 -239.31640625 234.80859375 C-257.70895114 235.23944731 -273.39526432 240.70750901 -290.48535156 246.99409485 C-309.21364882 253.86158394 -327.48176316 258.15678927 -347.5 258.375 C-348.39066162 258.38901855 -349.28132324 258.40303711 -350.19897461 258.41748047 C-353.82014701 258.39011379 -356.32216691 258.35127824 -359.5703125 256.66796875 C-361 255 -361 255 -361.375 251.9375 C-361 249 -361 249 -359 247 C-356.5324707 246.74462891 -356.5324707 246.74462891 -353.42578125 246.7265625 C-352.29052002 246.70891846 -351.15525879 246.69127441 -349.9855957 246.6730957 C-348.77347412 246.65722412 -347.56135254 246.64135254 -346.3125 246.625 C-335.86155484 246.35369776 -326.88779853 245.55503508 -317 242 C-315.75089844 241.58878906 -314.50179688 241.17757812 -313.21484375 240.75390625 C-272.20394125 226.79870149 -240.21917376 194.55445248 -220.03564453 156.921875 C-211.90468276 141.83301808 -203.3959319 128.05506864 -186.6875 121.75 C-176.58624576 119.69550761 -166.75491272 118.69729089 -157.67578125 124.48046875 C-151.59017928 129.39619529 -147.5522531 135.95282607 -146.69140625 143.8203125 C-146.37066657 152.04291166 -147.4326492 156.87837755 -153 163 C-153.54140625 163.60972656 -154.0828125 164.21945312 -154.640625 164.84765625 C-158.34222309 168.50601137 -161.69902153 169.98519215 -166.9140625 170.234375 C-170.29308586 169.85470945 -171.84809927 168.55538211 -174 166 C-174.9375 163.375 -174.9375 163.375 -175 161 C-172.02243925 158.02243925 -168.70452273 158.26794292 -164.62890625 157.7578125 C-161.9210854 157.19993176 -161.9210854 157.19993176 -160.17578125 155.234375 C-158.09834126 151.28654884 -158.49240859 147.34196438 -159 143 C-160.53322386 138.78363438 -162.08744881 136.23574354 -166 134 C-173.54454212 130.81452666 -179.21031145 131.77156308 -186.5703125 134.734375 C-198.71769156 141.06194866 -205.47771614 156.3448417 -212.1003418 167.73486328 C-222.89715158 186.20505753 -235.65127301 203.04483012 -251 218 C-244.26783196 216.20644749 -238.29440267 213.90150681 -232.1875 210.5625 C-231.38344727 210.13291992 -230.57939453 209.70333984 -229.75097656 209.26074219 C-224.41500284 206.38626115 -219.16940406 203.37011522 -213.93579102 200.31420898 C-189.78916683 186.25117643 -162.09232898 177.20039962 -134.0859375 184.08984375 C-124.14957966 187.02044043 -115.21112111 191.66363847 -109.8984375 200.8984375 C-108.4571711 204.2697476 -108.19545792 207.35145214 -108 211 C-107.34 211 -106.68 211 -106 211 C-105.65195313 210.19755859 -105.65195313 210.19755859 -105.296875 209.37890625 C-103.61273061 206.28961728 -101.45423197 203.6625615 -99.25 200.9375 C-55.42510206 145.85678613 -25.88822983 83.80446412 -13.64746094 14.19873047 C-13.36563965 12.63469482 -13.36563965 12.63469482 -13.078125 11.0390625 C-12.91731445 10.11303223 -12.75650391 9.18700195 -12.59082031 8.23291016 C-12 6 -12 6 -10 4 C-7.6171875 3.3671875 -7.6171875 3.3671875 -4.875 2.875 C-3.96492187 2.70742188 -3.05484375 2.53984375 -2.1171875 2.3671875 C-1.41851563 2.24601563 -0.71984375 2.12484375 0 2 C0 1.34 0 0.68 0 0 Z M-407 160 C-410.44423045 165.41061734 -413.59512986 170.93619366 -416.4375 176.6875 C-417.20900391 178.24017578 -417.20900391 178.24017578 -417.99609375 179.82421875 C-420.28601352 187.0682062 -416.92990893 192.82847243 -413.6328125 199.17578125 C-411.70420685 202.51162308 -409.63950806 205.20522676 -407 208 C-404.14774762 207.65446282 -403.1304615 207.14119567 -401.1484375 204.99609375 C-397.57022199 199.83369031 -394.5265016 195.35475193 -394 189 C-393.93425781 188.30003906 -393.86851562 187.60007812 -393.80078125 186.87890625 C-393.84473387 178.19093881 -399.06486024 168.98499204 -404 162 C-404.99 161.34 -405.98 160.68 -407 160 Z M-688.68359375 204.92578125 C-690.92624076 208.45944761 -691.32614737 211.86200525 -691 216 C-689.13558356 221.10025459 -685.85773809 225.02570644 -680.97265625 227.44140625 C-677.32548532 228.4741695 -673.53702205 228.38311249 -670 227 C-668.70143734 225.01927591 -668.70143734 225.01927591 -668 223 C-670.67247634 220.65712582 -670.67247634 220.65712582 -674 220 C-674 218.35 -674 216.7 -674 215 C-669.36743739 214.09165439 -666.1327102 213.47445488 -662 216 C-659.59071881 218.90775316 -659.02908757 220.72851598 -658.625 224.5 C-659.05119791 228.4778472 -659.33212842 230.01826118 -662 233 C-665.23785511 234.89265926 -668.57001938 236.48771961 -672 238 C-672.2314691 240.07046838 -672.2314691 240.07046838 -670.70703125 241.33984375 C-670.08183594 241.86707031 -669.45664062 242.39429688 -668.8125 242.9375 C-668.08417969 243.55625 -667.35585938 244.175 -666.60546875 244.8125 C-665.74566406 245.534375 -664.88585937 246.25625 -664 247 C-662.97459773 247.87422331 -661.94989484 248.74926741 -660.92578125 249.625 C-654.38151227 255.20866029 -647.75832241 260.67572343 -641 266 C-640.34 265.67 -639.68 265.34 -639 265 C-639.04640625 264.23816406 -639.0928125 263.47632813 -639.140625 262.69140625 C-639.50556505 252.25151421 -637.11393394 245.51125769 -629.98828125 237.8515625 C-622.52257111 230.89921161 -613.87259931 226.99968175 -603.875 225.375 C-602.77490601 225.18780396 -602.77490601 225.18780396 -601.65258789 224.99682617 C-595.12299871 223.92922382 -588.60940751 223.33334403 -582 223 C-584.79144997 219.71044743 -588.46662362 217.86443433 -592.1875 215.8125 C-593.25218506 215.22311646 -593.25218506 215.22311646 -594.33837891 214.62182617 C-596.5536901 213.40465177 -598.77552656 212.20033712 -601 211 C-601.66821777 210.63648438 -602.33643555 210.27296875 -603.02490234 209.8984375 C-625.84035777 197.59347278 -668.04342116 181.31648871 -688.68359375 204.92578125 Z M-185 198 C-186.07636719 198.38929688 -187.15273438 198.77859375 -188.26171875 199.1796875 C-197.69439657 202.88264349 -206.28386196 208.05368831 -215.01953125 213.140625 C-220.56022878 216.35353659 -226.20687268 219.26535605 -232 222 C-232 222.33 -232 222.66 -232 223 C-230.73027344 223.09796875 -229.46054687 223.1959375 -228.15234375 223.296875 C-211.54710524 224.69036691 -192.6590245 226.55356005 -180.5 239.25 C-173.33068146 248.22658425 -172.12927143 256.66625437 -173 268 C-173.51953125 270.4140625 -173.51953125 270.4140625 -174 272 C-163.21930753 265.21215659 -153.72652889 256.80915112 -144.04296875 248.578125 C-142.47535343 247.24997852 -140.90339995 245.92508903 -139.27978516 244.66601562 C-137.80156075 243.5069976 -136.39424962 242.25878441 -135 241 C-135 240.01 -135 239.02 -135 238 C-135.59167969 237.78085937 -136.18335938 237.56171875 -136.79296875 237.3359375 C-142.38127638 235.09332139 -145.8769768 233.23861957 -149 228 C-149.66494143 224.33574828 -149.39268573 221.09391024 -148.125 217.5625 C-147 216 -147 216 -145 215 C-143.125 214.8671875 -143.125 214.8671875 -141 214.875 C-139.948125 214.87113281 -139.948125 214.87113281 -138.875 214.8671875 C-137 215 -137 215 -135 216 C-135.5786112 219.35594497 -136.64000861 220.64000861 -139 223 C-139 223.99 -139 224.98 -139 226 C-135.34387956 228.33991708 -132.26792624 228.37437949 -128 228 C-124.31226627 226.32375739 -122.14216504 224.42746406 -120 221 C-118.36235284 216.08705852 -118.14826 211.08203111 -120.125 206.25 C-125.58576788 199.69707854 -132.64522464 195.72417366 -141 194 C-155.80179529 193.0897191 -171.02486471 192.52023055 -185 198 Z M-455 212 C-456.19618387 217.58219139 -456.29042079 221.08768595 -453.43359375 226.109375 C-449.58611255 231.1834374 -444.2058745 234.62091678 -438 236 C-436.3335109 236.02432831 -434.66643133 236.02800725 -433 236 C-434.01388239 226.49048239 -436.55983688 220.76448613 -443.875 214.5625 C-447.74279648 212.62860176 -450.70380669 212.29628919 -455 212 Z M-365.71875 213.7734375 C-371.923417 217.10950846 -375.66860333 221.3231729 -378 228 C-378.54712135 230.69882548 -378.80309709 233.24335927 -379 236 C-370.28880799 234.52746754 -363.87785663 230.64051366 -358.27734375 223.8671875 C-355.64692912 220.02211658 -355.91483787 216.5135929 -356 212 C-360.1304804 210.6231732 -361.91688116 211.95890919 -365.71875 213.7734375 Z M-415 269 C-413.7260411 271.03833424 -412.38938077 273.03852126 -411 275 C-410.34 275 -409.68 275 -409 275 C-409.4640625 274.071875 -409.4640625 274.071875 -409.9375 273.125 C-410.625 271.75 -411.3125 270.375 -412 269 C-412.99 269 -413.98 269 -415 269 Z M-408 280 C-408 280.99 -408 281.98 -408 283 C-407.01 282.01 -406.02 281.02 -405 280 C-405.99 280 -406.98 280 -408 280 Z M-408 297 C-415.32911071 307.05403649 -419.66492602 316.37827514 -418 329 C-415.55428308 337.47848531 -410.94166257 344.76551992 -406 352 C-402.86659214 348.36361561 -400.78263954 344.80827229 -398.8125 340.4375 C-398.30332031 339.32246094 -397.79414062 338.20742188 -397.26953125 337.05859375 C-393.60307608 328.22525713 -394.37826218 319.96813127 -397.58203125 311.05078125 C-399.99134337 305.86710972 -403.2786436 301.32597037 -407 297 C-407.33 297 -407.66 297 -408 297 Z M-366 301 C-365.56682609 306.4146739 -364.51017262 309.80729382 -361 314 C-356.83083462 316.54782329 -352.74277647 316.16077208 -348 316 C-346.56695936 313.13391871 -346.69355845 311.18699217 -347 308 C-349.47120353 303.15263922 -351.87634973 300.8445141 -357 299 C-361.15685632 298.59246507 -362.47089647 298.64726432 -366 301 Z M-465 304 C-466.41349769 307.39418221 -466.41349769 307.39418221 -466 311 C-464.10350449 314.14658666 -464.10350449 314.14658666 -461 316 C-456.03415007 316.10565638 -452.8626191 313.96433559 -449 311 C-447.85647084 308.71294169 -447.89665561 307.40735238 -447.9375 304.875 C-447.958125 303.59625 -447.97875 302.3175 -448 301 C-453.80863232 298.09568384 -460.49474301 299.60737443 -465 304 Z " fill="#000000" transform="translate(918,552)"/>
<path d="M0 0 C10.39789531 7.31936437 15.63369814 19.24292083 18.12109375 31.4296875 C20.17791074 46.43235263 20.17791074 46.43235263 16.5859375 51.8203125 C-6.93197436 47.62068538 -23.0600924 35.09495999 -38.75 17.73828125 C-41.28455252 14.88424703 -41.28455252 14.88424703 -43.703125 12.68359375 C-45.52788947 10.69635026 -46.03707669 9.45921318 -46.4140625 6.8203125 C-33.34560729 -4.13090695 -15.49581689 -8.93190518 0 0 Z M-30.4140625 8.8203125 C-28.93173797 13.82665382 -25.99050573 16.70814 -22.3515625 20.2578125 C-21.76665039 20.83329834 -21.18173828 21.40878418 -20.57910156 22.00170898 C-12.25154758 30.04230305 -3.03725962 36.14085197 8.5859375 37.8203125 C6.52786461 26.58911475 2.31762928 17.30465428 -6.640625 9.94140625 C-11.24366599 7.03155435 -15.12572683 6.54732594 -20.5390625 6.5703125 C-22.36824219 6.56257812 -22.36824219 6.56257812 -24.234375 6.5546875 C-27.57042258 6.57535223 -27.57042258 6.57535223 -30.4140625 8.8203125 Z " fill="#000000" transform="translate(407.4140625,722.1796875)"/>
<path d="M0 0 C0.75796875 0.26167969 1.5159375 0.52335938 2.296875 0.79296875 C5.06671989 1.82879917 6.69804341 2.46229657 8.17578125 5.09375 C8.44777344 5.7228125 8.71976563 6.351875 9 7 C5.34131545 11.34013936 1.67425622 15.67303681 -2 20 C-2.65097656 20.76828125 -3.30195312 21.5365625 -3.97265625 22.328125 C-7.02576155 25.87925457 -10.18740882 29.31559961 -13.4375 32.6875 C-14.11683594 33.39261719 -14.79617188 34.09773437 -15.49609375 34.82421875 C-21.89200822 40.38197907 -29.46730012 43.82468123 -37.125 47.3125 C-38.08792969 47.76689453 -39.05085937 48.22128906 -40.04296875 48.68945312 C-49.26490861 52.90719041 -49.26490861 52.90719041 -54 52 C-55.85546875 50.80859375 -55.85546875 50.80859375 -57 49 C-59.08398786 35.93586108 -54.88017913 20.63258644 -47.8125 9.6875 C-44.23051552 4.86559781 -40.28231272 1.79814817 -35 -1 C-34.38640625 -1.33902344 -33.7728125 -1.67804687 -33.140625 -2.02734375 C-22.50744652 -6.95768505 -10.40828559 -3.91021658 0 0 Z M-36.75 13.5625 C-42.40634806 20.61356402 -44.42653154 28.11123889 -45 37 C-32.91834256 36.76766043 -24.03234949 28.56087204 -15.59375 20.74609375 C-10.34516712 15.21182295 -10.34516712 15.21182295 -9 8 C-18.66838717 4.77720428 -29.64063758 6.13816582 -36.75 13.5625 Z " fill="#000000" transform="translate(655,722)"/>
</svg>
